<svg xmlns="http://www.w3.org/2000/svg" xmlns:xlink="http://www.w3.org/1999/xlink" viewBox="0 0 63.4 72.55"><defs><style>.cls-1{fill:none;}.cls-2{clip-path:url(#clip-path);}.cls-3{fill:#60aa45;}</style><clipPath id="clip-path" transform="translate(0 0)"><rect class="cls-1" width="63.4" height="72.54"/></clipPath></defs><title>growrulelogo</title><g id="Layer_2" data-name="Layer 2"><g id="Layer_1-2" data-name="Layer 1"><g id="growrulelogo"><g class="cls-2"><g class="cls-2"><path class="cls-3" d="M36.74,62.39a9.86,9.86,0,0,0,3.22,10c.74.63,3.43-.49,2.7-1.11a9.13,9.13,0,0,1-3-9.26c.24-1-2.66-.55-2.89.39" transform="translate(0 0)"/><path class="cls-3" d="M37.56,61.26c-10.71,2-23.9,3.76-30.68-6.85l-2.22,1.4a91.09,91.09,0,0,0,18,.86c.5,0,2.49-1.08,1.33-1.56A34.76,34.76,0,0,1,2.9,26.68L.58,27.88c7.66,2,11.18,11.42,19.84,10.73.39,0,1.93-.52,1.64-1.23A46.33,46.33,0,0,1,22.3.77l-2.8.75a120.48,120.48,0,0,1,13.2,26.4c.36,1,2.4.31,2.8-.34a27.5,27.5,0,0,0,4-18.27l-2.79,1c6.45,8.38,14,19.23,7.77,29.88-.66,1.13,1.47.86,1.94.69A99.55,99.55,0,0,0,62.85,33l-2.26-.52C56.32,40.89,51.06,50,44.07,56.34,32.14,67.25,22,52,17.26,42.49l-2,1.25a32.07,32.07,0,0,1,9.16,1.82c.64.23,2.53.1,2.6-.89A57.33,57.33,0,0,0,25,24.9l-2.79,1a56.48,56.48,0,0,0,10.46,10.4A2.1,2.1,0,0,0,35.14,36L41,29.29l-2.62-.1c-.31,4.29-.65,8.58-.94,12.87-.12,1.78-.65,4.15.87,5.52,2.49,2.25,6.86,0,9.08-1.47l-2.26-.52c-2.32,4.19-4.68,8.48-9.74,9.35-2.2.38-5.59.55-6.74-2.13-.93-2.17.91-3.2,1.78-4.35,2.31-3.08,3.93-5.76,1.22-9.4L29,40.22a15.11,15.11,0,0,1,4.16,11.86c-.09,1.23,2.83.69,2.9-.34a16.24,16.24,0,0,0-4.38-12.67c-.67-.74-3.43.15-2.68,1.16,4.44,6-4.47,6.62-4,11.47.28,2.9,3.51,4.8,6.06,5.35,8,1.73,13.38-5.13,16.81-11.32.69-1.24-1.79-.83-2.26-.52-2.16,1.44-4.81-.19-5.29-2.54-.26-1.23.25-3.4.33-4.6l.67-9.2c.09-1.19-2.18-.6-2.62-.1L32.8,35.42l2.51-.31a56.48,56.48,0,0,1-10.46-10.4c-.55-.71-3.08-.06-2.79,1a56,56,0,0,1,2,19.32l2.6-.89A36.42,36.42,0,0,0,16.36,42c-.42,0-2.41.43-2,1.25C19.08,52.7,27,65,39.43,61.14c4.73-1.48,8.12-5.16,11.17-8.88A109.25,109.25,0,0,0,63.29,32.63c.65-1.28-1.78-.81-2.26-.52a95.43,95.43,0,0,1-15.77,7.46l1.94.69c6.44-11.1-1-22.31-7.8-31.15-.59-.76-2.92-.06-2.79,1A26.08,26.08,0,0,1,32.8,27.48l2.8-.34A122.36,122.36,0,0,0,22.2.36c-.59-.89-2.49,0-2.8.75a47,47,0,0,0-.25,37l1.64-1.23C13.7,37.5,9,28,2.33,26.25c-.72-.19-2.44.22-2.33,1.2A35.75,35.75,0,0,0,21.7,56.55L23,55a84.06,84.06,0,0,1-16.62-.81c-.62-.09-2.91.32-2.22,1.4,7.21,11.26,21.68,9.51,33,7.37,1.4-.26,2.36-2.06.37-1.69" transform="translate(0 0)"/></g></g></g></g></g></svg>