<svg xmlns="http://www.w3.org/2000/svg" viewBox="0 0 276.51 262.31"><defs><style>.cls-1{fill:#00a651;}.cls-2{fill:#231f20;}.cls-3{fill:#8b5e3c;}.cls-4{fill:#f7941d;}</style></defs><title>moveplantbutton</title><g id="Layer_2" data-name="Layer 2"><g id="Layer_1-2" data-name="Layer 1"><path class="cls-1" d="M88.34,131.13c-2.35-15-5.86-30.07-13.72-43A111.46,111.46,0,0,0,60.13,69.88c-7-7.45-14.67-14.62-24-18.77s-20.71-4.84-29.47.44c-1.6,1-3.2,2.27-3.61,4.1-.92,4.07,4.13,6.66,8.15,7.69q25,6.36,50.23,11.71"/><path class="cls-2" d="M61.69,72.63c.28.1.26-.33.32-.4C61.52,72.22,61.68,72.74,61.69,72.63Z"/><polygon class="cls-2" points="56.75 72.54 56.87 72.39 56.08 72.65 56.75 72.54"/><path class="cls-2" d="M52.31,71.57c.27.79,1.63.24,2.37.66l.1.19.48-.48A11.17,11.17,0,0,1,52.31,71.57Z"/><path class="cls-2" d="M50.28,69.53c.09.3-.56.12.53.21l-.08-.09A3.44,3.44,0,0,1,50.28,69.53Z"/><path class="cls-2" d="M50.72,69.65c.47.08-.25-.3,0,0Z"/><path class="cls-2" d="M48.54,69.33l.67-.1c-.09-.19-.63-.35-.4-.42C48.14,68.8,48.24,69,48.54,69.33Z"/><path class="cls-2" d="M47.84,69.71l.34,0C48.14,69.59,48.06,69.55,47.84,69.71Z"/><path class="cls-2" d="M48.9,69.61l-.72.07c.06.13,0,.36.33,0C48.41,69.86,48.58,69.69,48.9,69.61Z"/><path class="cls-2" d="M49.26,69.8c.31.23.74.42.06.53C50.53,70.49,50.46,70,49.26,69.8Z"/><path class="cls-2" d="M51.92,72.24l.42.31.45-.15C52.57,72.47,51.94,72,51.92,72.24Z"/><path class="cls-2" d="M44.79,68.11c-.07.14.12.44.12.64l.49-.07C45.19,68.53,44.77,68.33,44.79,68.11Z"/><path class="cls-2" d="M44.91,68.75l-.74.1C44.77,69,44.91,68.92,44.91,68.75Z"/><polygon class="cls-2" points="47.56 70.45 48.79 70.17 47.34 70.41 47.56 70.45"/><polygon class="cls-2" points="42.2 67.5 42.67 67.24 41.86 67.6 42.2 67.5"/><path class="cls-2" d="M40.47,67.16c.35-.22-.28-.57.06-.68a3.11,3.11,0,0,0-1.34.23A1.82,1.82,0,0,1,40.47,67.16Z"/><path class="cls-2" d="M38.52,66.9a3.7,3.7,0,0,0,.68-.18A1.91,1.91,0,0,0,38.52,66.9Z"/><path class="cls-2" d="M43,68.51A.79.79,0,0,0,42.6,68l.17.48Z"/><path class="cls-2" d="M42.78,68.46v0l-.57-.16Z"/><path class="cls-2" d="M43.1,68.53l-.07,0S43.06,68.58,43.1,68.53Z"/><path class="cls-2" d="M45.86,69.68c-.45.14-1.34.2-.62.74C45.6,70.2,45.18,69.89,45.86,69.68Z"/><path class="cls-2" d="M43.31,69.13l.7.26c0-.11-.08-.3.14-.37Z"/><polygon class="cls-2" points="42.93 69.18 43.31 69.13 43.05 69.03 42.93 69.18"/><path class="cls-2" d="M39.66,67.57a2.37,2.37,0,0,1-1.09,0,6.56,6.56,0,0,0,1.21.41C39.87,67.86,40.11,67.66,39.66,67.57Z"/><path class="cls-2" d="M41.17,68h-.07S41.16,68.11,41.17,68Z"/><polygon class="cls-2" points="34.79 66.67 34.83 66.76 34.86 66.7 34.79 66.67"/><path class="cls-2" d="M39.84,68.07a.73.73,0,0,0,.71,0,4.54,4.54,0,0,1-.76-.1C39.75,68,39.73,68.06,39.84,68.07Z"/><path class="cls-2" d="M37.42,66.85a3.93,3.93,0,0,0,.48.35C37.77,67,37.5,66.75,37.42,66.85Z"/><path class="cls-2" d="M41,67.91h.05C41,67.79,41,67.84,41,67.91Z"/><path class="cls-2" d="M41,67.91a1.81,1.81,0,0,0-.47.16,2.62,2.62,0,0,0,.55,0A.53.53,0,0,1,41,67.91Z"/><path class="cls-2" d="M33,69.08c.15-.37,1-.54,1.65,0,.76-.13.6-1.5.17-2.35-.06.16-.1.32-.86.38.2.27,1.46.86.78,1.07-1,0-.74-.32-1.15-.63.28.57-1.36.42-1.33,1.17l.89-.05C33.15,68.82,32.81,68.92,33,69.08Z"/><path class="cls-2" d="M36.18,67.12l.3,0a2.77,2.77,0,0,1-.89-.76c-.53.07-.67.19-.73.31l1.43.39Z"/><path class="cls-2" d="M37.8,67.45c-.33.37-1.07.38-.75.94.87.17.68-.21,1.24-.27-1.41-.22.45-.14-.49-.61a4.17,4.17,0,0,1,.77.06,6,6,0,0,1-.67-.36l0,0h0c0,.07.06.1,0,.06h0a.49.49,0,0,1-.1.14c-.38-.18,0-.12.1-.14l0-.06h0l-1.44-.09A5.33,5.33,0,0,0,37.8,67.45Z"/><path class="cls-2" d="M44.3,71.15a.12.12,0,0,1,0-.11C44.17,71.08,44.13,71.11,44.3,71.15Z"/><path class="cls-2" d="M43.78,70.77a.59.59,0,0,1,.56-.07c.26.19,0,.2-.06.34.22-.07.76-.14.19-.49l-.11,0c-.53-.27-1.13-1-1-1A2.9,2.9,0,0,0,43.78,70.77Z"/><path class="cls-2" d="M40.72,69.21l-1.21-.06.51.5,0-.23C40.68,69.66,40.6,69.36,40.72,69.21Z"/><polygon class="cls-2" points="34.71 66.44 34.96 66.03 34.15 66.5 34.71 66.44"/><polygon class="cls-2" points="33.19 66.13 33.34 65.76 32.89 65.9 33.19 66.13"/><path class="cls-2" d="M51.57,58.32l.35.15A1.45,1.45,0,0,0,51.57,58.32Z"/><path class="cls-2" d="M49.57,56.65l-.17.11C49.56,56.75,49.65,56.72,49.57,56.65Z"/><path class="cls-2" d="M6.61,54.63c.53,0,1.2.27.9-.07l-.35-.28A.91.91,0,0,1,6.61,54.63Z"/><path class="cls-2" d="M29.88,48.86l-.11-.16-.43.32Z"/><path class="cls-2" d="M30.69,47.21c.2.15.41.29.6.45A2.27,2.27,0,0,0,30.69,47.21Z"/><path class="cls-2" d="M62,67.78h.61C62.2,67.31,62.24,67.67,62,67.78Z"/><path class="cls-2" d="M17.79,62.56a3.69,3.69,0,0,0-1-.52C17.25,62.41,17.57,62.88,17.79,62.56Z"/><path class="cls-2" d="M47.85,61.21c.21.07.33.06.39,0C48,61.12,47.89,61.1,47.85,61.21Z"/><path class="cls-2" d="M15.57,61.73c.06.06.13.1.2.16a3.38,3.38,0,0,1,1,.15A1.19,1.19,0,0,0,15.57,61.73Z"/><path class="cls-2" d="M87,112a1.16,1.16,0,0,1,0,.12C87,112.15,87,112.1,87,112Z"/><path class="cls-2" d="M85.77,127.27a4.63,4.63,0,0,1-.13-.58A1.42,1.42,0,0,0,85.77,127.27Z"/><path class="cls-2" d="M27.2,64.51c.32,0,.06,0,0,0Z"/><path class="cls-2" d="M28.34,66.55a.27.27,0,0,0-.18.17A.35.35,0,0,1,28.34,66.55Z"/><path class="cls-2" d="M11.74,63.55h0C11.79,63.65,11.77,63.63,11.74,63.55Z"/><path class="cls-2" d="M27.63,64.82a2.15,2.15,0,0,0-.38-.22A2.16,2.16,0,0,0,27.63,64.82Z"/><path class="cls-2" d="M27.61,64.6l.27.11C27.94,64.65,27.91,64.59,27.61,64.6Z"/><path class="cls-2" d="M26.75,64.42a2.39,2.39,0,0,1,.5.17c-.06,0-.08-.07-.06-.08Z"/><path class="cls-2" d="M75.59,87.2a.69.69,0,0,1,0,.08C75.93,87.47,75.83,87.36,75.59,87.2Z"/><path class="cls-2" d="M12,47l0,0H12Z"/><path class="cls-2" d="M13.17,46.39c-.39.66-.69.69-1.12.69l.74,1.09C12.9,47.58,13,47,13.17,46.39Z"/><path class="cls-2" d="M56.26,62.4l-.35-.86c1.19.24,1.57.92,1.37,0-1,.89-2.51-2.18-3.53-1.24l-.22-.59c.11.12.19.07.29.19-.39-1.21-1.26.2-2.18-.87-.31-.39-.44-.76-.08-.67l-1.05-.44c-.23-.22,0-.36.21-.13-.44-.33-.91-.64-1.36-1l0,0a8.18,8.18,0,0,1-1.23-.1c-.22-.41.26,0,.27-.19l-.93-.29c-.09-.51.73-.32,1.21.11.12-1.59-.8-.21-1.85-1.93l.82.37c0-1-.74-1.13-1.29-2.11.07.34.94,2.15-.08,1.84a1.36,1.36,0,0,0-1.05-.58c.27-.4-.24-.6-.82-.95l.39-.51c-.71-.25-.84.07-1.35.09A1.29,1.29,0,0,1,43,51.06c-1.08-.75.37,1.13-1,.47A5,5,0,0,0,39,50.39c-.57-.54.29-.29.13-.58l-.83.16c-.14-.08,0-.2,0-.26-.59-.06-.32.56-1.18.34-.48.54-1.24-1.68-2.57-1.33-.19-.26.26-.32.27-.58a7.27,7.27,0,0,0-2.73.21l-.88-.71c.6.69-.5.93-1.41,1.2a7.69,7.69,0,0,0,.48.67l-1.34,0c-.13-.14,0-.32.32-.53l-.27.09c-.4-.34-.09-.65.33-.91.13.16.25.33.37.5.41-.3.83-.64.86-1a1.09,1.09,0,0,1-.48.06c.11-.08.19-.16.17-.23s-.2,0-.46.13l-.14-.77-.14.26c-.55-.3-1.11-.54-1.68-.81-1.42.46-2.65,1.35-4.62,1.48.52-.48.17-.84.24-1.46.5.71,1.6-.16,2.65.15-.54-.15-.38-.42-.23-.5-.66.09-1.31.24-2,.38.09-.5-.37-.42-.86-.66.31,1-1.45.6-2.22.91,0-.33.14-.7,1.08-.58-1-.8-1.34,1.17-2.35.54.23,0,.35,0,.44-.14-.52.29-1.83.15-1.55-.16l.23,0c-1.55-.09-4.66.62-4.66,1.52a5.21,5.21,0,0,1,0-1.23A26.86,26.86,0,0,0,12.29,50c0-.76-1.42-2.16-.3-2.91a2.14,2.14,0,0,0-1.53.53c.28,0,.93.78.64,1A5.54,5.54,0,0,0,9,48.16c.41,0,.46,1.22-.07,1.42,0-.19-.51-1-.36-1.21-.3.56-.6,1.08-.85,1.64.22-.35-.37-.88-.82-1,.24.12-1.15.6-1.45.92.23,0,.46-.06.69-.09a1.73,1.73,0,0,0-1,1.5A2.5,2.5,0,0,1,4.36,53c0-.28-.59-1.44-1.39-.82a12.91,12.91,0,0,0,.53,2c.28.84.71,1.54.9,2L4,56.38a2.15,2.15,0,0,0,.19.38,1.17,1.17,0,0,0,.23.32,3,3,0,0,1-1.71-1.41,4.43,4.43,0,0,1-.53-2.77c-.65.55-.49-.06-1,1.13-.49.33-.13-.89.09-1.23A7.05,7.05,0,0,0,0,55.91c.17,0,.28.13.36.36s.19.55.28.86c.19.61.52,1.15.76,1a6.32,6.32,0,0,1-.66-3.31c.33,0,.66.64,1,1.32.14.34.35.73.48,1.11a12.4,12.4,0,0,1,.46,1.16c0,.25-.34.31-.67.28s-.68-.14-.78-.08a9.08,9.08,0,0,1,1.24,1.73,4.27,4.27,0,0,1-.77-.5c.18.59.66.79,1.08,1a1.85,1.85,0,0,1,1.07,1.05c.26.31.46,1.42.75,1.15-.14-1,1.27-3,1.86-3.24,0,.12,1,1.47,1.18,2s-.22.63-.58.84-.74.38-.63.74c.1-.15.5-.2.66-.21.28.3-.39.45.41.73.4-.57,1.54.69.59-.38.81.12.73.45,1.64.71-.13-.5,1.22-1.18,2-1.21-.09.16,0,.42.08.54,1.48.44,2.2.94,3.59,1.3.09.19.71.55.35.77a1.48,1.48,0,0,1,.9-.15c.69.78-1-.15-.52.69.15-.37,1.24-.25,1.92-.34,0-.64-1.38-.47-2.06-.38.2-.82,1.48-1.41,3-1.43,1.21.08.37.65.6.59,2.14.68,2.2-1,3.86.06.59.7-.22,1-.15,1.46-1,0-1.37-.69-2-.82l.73.44a1.78,1.78,0,0,1-1.31-.16c.48.62,3.65,1,5.22,1.83.34-.1.9-.16.71-.43L26,66.92c-.39-.54,1.14-.34.52-.7a4,4,0,0,1,2.64.08l0,.64c0-.18-.57-.51-.9-.4.48-.16,1.34,1.18,2,.5l-.6-.58c.79-.13,1.82-.55,2.66-.15-.26-.68-.22,0-.69-.82.34,1-2.26-.58-1.6.53-.46-1-1-.61-1.72-1.49,0,.2.21.45-.51.17a.88.88,0,0,1-.21.13l0,0,0,0s0,0,0,0a.87.87,0,0,1,.31.39c-.48.36-1.66.06-2.12.2-.42-.2.24-.18,0-.45l-.68.2c0-.45-1-1,.11-1l-.93-.25a2.68,2.68,0,0,0-1.74-.59c-.42-.2-1.23.21-.77,0l-1.53-.09v-.11c-1.43-.41-3.16,0-4.62-1.22a4.35,4.35,0,0,1-1.84-.33l-.06-.42c-.65,0-1.8-.85-2.13-.53-.16-.59-.77-.81-1.44-1A5.46,5.46,0,0,1,8.55,59l-.27.43a19.08,19.08,0,0,0-1.79-.81l-.26.37a1.15,1.15,0,0,1-.78-.82,9.15,9.15,0,0,1-.26-1.07c.16,0,.17.14.12.29.33-.55.12-.62,0-1.1a.75.75,0,0,1,.43-1.12.43.43,0,0,1,.4-.43.11.11,0,0,0,0,.06l.08-.07.43-.06a1.07,1.07,0,0,0-.39,0A5.85,5.85,0,0,0,6.76,54l.4.31.05-.06c.37,0,.09-.34-.26-.53a2.17,2.17,0,0,0,.23-.5c.64.5.73-.72,1.49-.2,0-.51,1.54-1.11,1.41-2,.06.1.18.1,0,.19a1.87,1.87,0,0,0,1.15-.51l.38.51c.2-.36.4-.74.62-1.1.68.19.95.34.55.94,1.1-1.06,1-.59,1.95-1.53l0,.4c.4-.1,1-.78,1.28-.48.53.3,1.67.14,3,.08.67,0,1.39,0,2.09,0a8.68,8.68,0,0,1,2,.39c-.38-1.2,1.07.62,1.24-.27.11.29.42.47,0,.67,1.24-.12,1.73.66,2.69.06.09.3-.33.35-.24.53.1,0,.42-.16.51,0s-.22.19-.43.27c1.2.19,1.52-.62,1.78-1.37.55.53.86.55,1.45.16.15.31.44.66-.35.56.43.13,2.48,1.12,2.72.55.08.2.57.26.71.23.93.37,1,.48,1.92.8l-.21-.2c.66-.56.83.15,1.59.42l-.05.06c1.42,1.28.84.1,2.16,1.49l.14-.47c.65-.84,1.12,1.31,2.21,1.5l-.18-.44c.68,0,.64,2,1,2.45.05.14-.24,0-.42,0,.9,1.33.5-.42,1.51.07,0,.39-.7.57-.12,1,.14.43,2.41.35,2.84,1.51,0-.34,0-.69.49-.53.7.41,1.09,2.1,2.16,1.93a.28.28,0,0,1,0,.25c.61.22,1.75,1,2.32.94-.67,1.59,3.39,2,2.33,3.12l1.42,1.26-.14.08a2.4,2.4,0,0,0,1.92,1c.13.27-.12.23-.2.27A4,4,0,0,0,58.69,70l-.25.45c.49.1,1.21,2.41,2.81,3.31a.35.35,0,0,1-.29,0c1.77,1.07,2.08,4.41,3.91,3.78l1.18.71c-1-1.38.76-.31.55-1,.51.44.68,1.68.09,1.1v-.16c-.91.37,1.07,1.83.53,2.2a65.71,65.71,0,0,1,5.11,8l.43-.69.53.93c0,.33-.29.62-.66,0-.14.55,1,.91,1.1.85.49,1.44-1-.07-.81.34l.36.5v-.16c.51.28.81.16,1.24,1,.16.57-.25.48-.16.69,0,0,0,.1.14.32L75,93.35l.26-.74c.53.39.57,1.13.86.28-.43,1.25,1.88,4.7,1.8,5.36a4.77,4.77,0,0,1,1.37,2.35c0-.28.56-.67.82.19-1.35.18,0,1.74-.62,2.74.4-.82,1,2.32,1.51,1.07.14.74-.46.21-.58.84,1.07,1.5.87,3.79,1.63,5.82.18,0,.34-.44.72-.06l-.54,1.34c.19.39,1.08.12.69,1,.12-.14.29-.36.42-.1.24,4.33,2.69,8.41,1.86,13,.23-.64.34-.26.42.18,0-.3.43-.07.65-.17L86,128.43c.71.22.36,1.93,1,2l-.2-.56c.86.65,1.46-1.34,2.43-1.38-1-.72.85-2.49-.6-3.69.13-.35.35.21.54,0-.47-.29-.64-.7-.6-1.53l.12.07c-.53-2.23-.32-3.27-.61-5.85l-.42.29a2.12,2.12,0,0,1,.12-1c-.84-.46.29,1.53-.6,1.14.8-.93-.87-3.8.07-4.55-.21-.83-.47.38-.68-.45l.23-.29-.42-.11a.91.91,0,0,1,.44-1A2,2,0,0,0,87,112c.16-.8-.65-2-.61-2.23l0,.84c-.89-2.18-1.35-5-2.67-7l-.16.24c-.94-1.5-.23-1.38-1.06-3.1l.07,0a2.8,2.8,0,0,1-.8-1.2c.42.35.13-1,.64-.55-1.12-1.58-.67-.74-1.91-1.55l.23-.41a1.85,1.85,0,0,1-1.12-1c.6.58.27-.78,1-.16-.07-2.18-2-2.32-1.33-3.67-1.32-.36.24,1.81-.18,1.44-.12.53-1-.34-1.19-.94s.66-1.55-.11-3c.07.14.14.12.22.26,0-.67-.89-.86-.89-1.71-.74,0-.45-.85-1.19-.55l.9,1.18c-.61-.62-1.76-.82-2.11-2.2a2.24,2.24,0,0,1,.83.42c0-.46-.54-.57-.56-1.05.73-.32,1.1,1.42,2.05,1.9.07-.55-1.35-1.17-.39-1.23-1.27,0-.72-1.44-2-1.9l.44-.2a2.23,2.23,0,0,1-.71-.55l.83.14c-.93-.44-.58-1.68-1.31-2.21,1,1.45-.24.65-.09,1.47-1.77-1.42.31-1.75-1.34-3.6.26.22.51,1.17,0,.88a3.61,3.61,0,0,1-.4-1.41c-1.07-1.23-.23.49-.89.12.12-.79-.67-.49-1.25-.92l.38-.3c-.91-1.63-1.08.24-1.83-1.26l1,.12-.68-.56.54-.21a2.94,2.94,0,0,1-1.49-1.56c-.12.38-.74.48-1.28-.12-.14-.6.55-.07-.25-.89.4,0,.87,0,.86.63.15-.06.4,0,.55-.06-.14-.67-.93-1.19-1.2-1.49a1.12,1.12,0,0,1,.21.41l-1.6-.8c0-.32.21-.26.45-.2-.26-.22-.58-.24-.95-.58.38-.17.66-.46,1.26-.06l-1.39-.89c.05-.19-.2-.92,0-.86-.43-.81-2-1.07-2.6-2.12a.74.74,0,0,1-.44-.17c-.68-.85-1-1.89-2.31-2.44l0-1c-.83-.61.08,1.33-1.31.32-1-.69.1-.74-.06-1.18-.68-.17-1.92-.38-2.33-1.55C55.84,61.93,56,62.2,56.26,62.4Zm-9.93-7.92c.26.06.85.09.83.43C46.6,55.19,46.58,54.86,46.33,54.48Zm-18-6.94c.21-.12.48,0,.75.25A1.39,1.39,0,0,1,28.29,47.54ZM23.62,64l0,0C23.11,63.75,23.28,63.87,23.62,64Zm1,.47c.12,0,.13-.11.1-.18-.1.1-.35.05-.61-.05C24.18,64.42,24.3,64.54,24.64,64.51ZM74.53,91.85V91.6C74.89,92,74.72,91.9,74.53,91.85Z"/><path class="cls-2" d="M30.59,47.4a.5.5,0,0,1,0,.28C30.74,47.62,30.77,47.53,30.59,47.4Z"/><path class="cls-2" d="M61.93,67.78l0,0,.09,0Z"/><path class="cls-2" d="M6.73,63.82a1,1,0,0,1-.33-.44C6.33,63.47,6.39,63.63,6.73,63.82Z"/><path class="cls-2" d="M30.54,65.09l-.72,0a1,1,0,0,1,.58.3C30.42,65.23,30.32,65,30.54,65.09Z"/><path class="cls-2" d="M35.85,69.41c.11,0,.22,0,.33,0l0-.22C35.77,69.11,35.43,69.21,35.85,69.41Z"/><path class="cls-2" d="M30.81,66.8c0,.41.43.38.93.42l-.09,0C31.92,66.68,31.36,66.74,30.81,66.8Z"/><path class="cls-2" d="M31.85,67.23a1.84,1.84,0,0,1,.45.1C32.41,67.12,32.13,67.24,31.85,67.23Z"/><path class="cls-2" d="M26.07,64.58c.2.16.27-.47.36-.28C26.81,63.86,24.76,64.54,26.07,64.58Z"/><polygon class="cls-2" points="30.89 68.19 30.83 67.66 30.47 67.99 30.89 68.19"/><path class="cls-2" d="M27.15,66.92l.74.32c0-.08.12-.11.25-.12C27.67,67,27.17,66.77,27.15,66.92Z"/><path class="cls-2" d="M28.14,67.12a1.32,1.32,0,0,0,.64.07A3,3,0,0,0,28.14,67.12Z"/><polygon class="cls-2" points="29.8 68.09 29.59 67.93 29.06 67.76 29.8 68.09"/><path class="cls-2" d="M18.87,64.79,18,64.73c-.13.15.08.3.41.32S19,65,18.87,64.79Z"/><path class="cls-2" d="M21.09,66.76c-.2-.16-.19-.27-.28-.46l-.17.6Z"/><path class="cls-2" d="M18.6,66.29c-.13.15-1.34.18-.26.4C18.46,66.55,19.34,66.62,18.6,66.29Z"/><polygon class="cls-2" points="6.26 61.64 6.46 61.75 6.94 60.85 6.26 61.64"/><path class="cls-2" d="M4,50.06c-1.17.6.15.65-.94,1.19-.06.37.88-.44.78-.08C4.28,50.5,4.69,50.41,4,50.06Z"/><path class="cls-2" d="M3.86,51.17a2.34,2.34,0,0,0-.19.36A1.57,1.57,0,0,0,3.86,51.17Z"/><polygon class="cls-2" points="85.63 129.73 85.53 130.41 85.8 129.94 85.63 129.73"/><path class="cls-2" d="M86.58,130.85l-.62.25.64.3C86.56,131.26,86.45,131,86.58,130.85Z"/><path class="cls-2" d="M45.48,52.32l-.13.1c0,.2.13.3.38.5Z"/><polygon class="cls-2" points="52.64 58.4 52.53 58.28 52.37 58.92 52.64 58.4"/><path class="cls-2" d="M58.83,63.15c-.21-.24-.57-.41-.77-.65C58.62,62.91,58.38,63.72,58.83,63.15Z"/><path class="cls-1" d="M83.6,105.33C82.13,91,83,76,89.13,63s18.09-23.86,32.3-25.81c3.95-.54,8.15-.36,11.65,1.54s6.12,5.83,5.57,9.8c-.78,5.66-6.94,8.65-12.31,10.51A322.8,322.8,0,0,1,87.46,69.85"/><path class="cls-2" d="M88.16,72.19c-.25,0-.08.41-.1.49C88.45,72.5,88.12,72.09,88.16,72.19Z"/><polygon class="cls-2" points="91.97 70.38 91.93 70.56 92.43 70.02 91.97 70.38"/><path class="cls-2" d="M95.71,69.52c-.52-.61-1.33.43-2.05.34l-.15-.13-.17.63A8.24,8.24,0,0,1,95.71,69.52Z"/><path class="cls-2" d="M98.06,70.54c-.19-.24.38-.34-.49,0l.1,0A2.55,2.55,0,0,1,98.06,70.54Z"/><path class="cls-2" d="M97.68,70.62c-.39.11.31.16,0,0Z"/><path class="cls-2" d="M99.46,70l-.46.37c.15.13.62.05.48.21C100,70.33,99.83,70.2,99.46,70Z"/><path class="cls-2" d="M99.82,69.39l-.24.17C99.65,69.61,99.72,69.61,99.82,69.39Z"/><path class="cls-2" d="M99.07,69.91l.52-.36c-.1-.09-.17-.32-.24.14C99.33,69.48,99.27,69.7,99.07,69.91Z"/><path class="cls-2" d="M98.72,69.89c-.33-.08-.73-.08-.27-.45C97.48,69.78,97.75,70.23,98.72,69.89Z"/><path class="cls-2" d="M95.73,68.76l-.44-.11L95,69C95.15,68.8,95.8,69,95.73,68.76Z"/><path class="cls-2" d="M102.78,69.55c0-.16-.28-.35-.36-.53l-.34.27C102.3,69.34,102.7,69.34,102.78,69.55Z"/><path class="cls-2" d="M102.42,69l.51-.4C102.4,68.73,102.34,68.87,102.42,69Z"/><polygon class="cls-2" points="99.72 68.59 98.92 69.36 99.9 68.54 99.72 68.59"/><polygon class="cls-2" points="104.97 68.99 104.73 69.42 105.17 68.75 104.97 68.99"/><path class="cls-2" d="M106.4,68.54c-.16.35.46.39.25.63a2.44,2.44,0,0,0,.89-.79A1.34,1.34,0,0,1,106.4,68.54Z"/><path class="cls-2" d="M108,67.92a3.09,3.09,0,0,0-.42.46A1.53,1.53,0,0,0,108,67.92Z"/><path class="cls-2" d="M103.91,68.44a.71.71,0,0,0,.56.3l-.33-.35Z"/><path class="cls-2" d="M104.13,68.37h0l.49-.11Z"/><path class="cls-2" d="M103.85,68.45h.06S103.86,68.39,103.85,68.45Z"/><path class="cls-2" d="M101.31,68.59c.28-.32.91-.75.14-.92C101.29,68,101.73,68.11,101.31,68.59Z"/><path class="cls-2" d="M103.44,68l-.63.07c0,.11.19.24.06.39Z"/><polygon class="cls-2" points="103.7 67.8 103.44 68.01 103.67 67.98 103.7 67.8"/><path class="cls-2" d="M106.82,67.82a1.76,1.76,0,0,1,.81-.46,4.75,4.75,0,0,0-1.08.16C106.54,67.66,106.45,67.94,106.82,67.82Z"/><path class="cls-2" d="M105.5,68.06l.05,0S105.48,68,105.5,68.06Z"/><polygon class="cls-2" points="110.79 66.46 110.72 66.4 110.73 66.48 110.79 66.46"/><path class="cls-2" d="M106.47,67.46a.56.56,0,0,0-.52.3,3.31,3.31,0,0,1,.6-.24C106.55,67.46,106.55,67.42,106.47,67.46Z"/><path class="cls-2" d="M108.79,67.48a3.1,3.1,0,0,0-.51-.1C108.45,67.47,108.77,67.6,108.79,67.48Z"/><path class="cls-2" d="M105.67,68.11l0,0C105.75,68.2,105.72,68.16,105.67,68.11Z"/><path class="cls-2" d="M105.67,68.11a1.52,1.52,0,0,0,.28-.35,2,2,0,0,0-.39.26A.51.51,0,0,1,105.67,68.11Z"/><path class="cls-2" d="M111,63.55c.07.39-.51.94-1.21.7-.49.45.24,1.6.95,2.15,0-.17-.07-.32.45-.72-.27-.15-1.46-.1-1.06-.59.73-.42.68-.05,1.12,0-.46-.38.8-1,.42-1.63l-.61.44C111,63.84,111.2,63.59,111,63.55Z"/><path class="cls-2" d="M109.58,66.69l-.23.12a2.26,2.26,0,0,1,1,.28c.35-.3.4-.47.39-.6l-1.22.29Z"/><path class="cls-2" d="M108.24,67.12c.08-.47.61-.81.13-1.16-.71.23-.41.49-.78.79,1.13-.43-.27.33.64.32a3,3,0,0,1-.6.29,4.59,4.59,0,0,1,.65,0l0,0h0c-.06,0-.09-.06,0-.05l0,0a.55.55,0,0,1,0-.17c.36,0,.08.09,0,.17a.45.45,0,0,0,0,.07h0l1.1-.56A3.88,3.88,0,0,0,108.24,67.12Z"/><path class="cls-2" d="M101.85,66.61a.13.13,0,0,1,.06.09C102,66.62,102,66.58,101.85,66.61Z"/><path class="cls-2" d="M102.39,66.73c-.07.08-.1.27-.38.29s-.05-.2-.1-.33c-.14.15-.5.45.07.52l.07-.08c.51,0,1.24.38,1.18.46A3,3,0,0,0,102.39,66.73Z"/><path class="cls-2" d="M105.32,66.82l.91-.47-.59-.22.08.21C105.15,66.4,105.34,66.64,105.32,66.82Z"/><polygon class="cls-2" points="110.96 66.64 110.96 67.11 111.34 66.33 110.96 66.64"/><polygon class="cls-2" points="112.2 66.22 112.27 66.61 112.53 66.28 112.2 66.22"/><path class="cls-2" d="M107.28,45.17l-.17.25A1,1,0,0,0,107.28,45.17Z"/><path class="cls-2" d="M109,44.13l-.06-.19C108.91,44.08,108.92,44.16,109,44.13Z"/><path class="cls-2" d="M140.94,49.81c.48-.45,1.16-1,.7-1l-.45.12A1.61,1.61,0,0,1,140.94,49.81Z"/><path class="cls-2" d="M124.24,37l.13.13.28-.42Z"/><path class="cls-2" d="M124,38.84l-.54-.25A2.11,2.11,0,0,0,124,38.84Z"/><path class="cls-2" d="M99.34,52.67l.11.53C99.79,52.83,99.48,52.85,99.34,52.67Z"/><path class="cls-2" d="M124.93,62a2.73,2.73,0,0,0,1-.05C125.39,61.88,124.93,61.65,124.93,62Z"/><path class="cls-2" d="M105.47,40.84c-.12.16-.13.29-.08.37C105.51,41,105.56,40.91,105.47,40.84Z"/><path class="cls-2" d="M126.91,61.62l-.22,0a2.45,2.45,0,0,1-.8.38A.88.88,0,0,0,126.91,61.62Z"/><path class="cls-2" d="M85.56,89.63a.85.85,0,0,1-.05.09C85.56,89.74,85.56,89.69,85.56,89.63Z"/><path class="cls-2" d="M81.4,101.92a3.43,3.43,0,0,1-.07-.51A1.06,1.06,0,0,0,81.4,101.92Z"/><path class="cls-2" d="M117.3,64.87c-.26.11,0,.06,0,0Z"/><path class="cls-2" d="M115.51,63.63a.28.28,0,0,0,0-.23A.36.36,0,0,1,115.51,63.63Z"/><path class="cls-2" d="M128.59,58.12h0C128.51,58.06,128.53,58.07,128.59,58.12Z"/><path class="cls-2" d="M116.84,64.81a1.6,1.6,0,0,0,.38,0A1.68,1.68,0,0,0,116.84,64.81Z"/><path class="cls-2" d="M117,65l-.24,0C116.7,65.1,116.74,65.13,117,65Z"/><path class="cls-2" d="M117.66,64.74a1.67,1.67,0,0,1-.44.09c.06,0,.09,0,.08,0Z"/><path class="cls-2" d="M88.52,67.91l-.06,0C88.53,68.27,88.54,68.15,88.52,67.91Z"/><path class="cls-2" d="M135.44,43.54h0v0Z"/><path class="cls-2" d="M134.72,43.08c.62-.06.72.14.75.43.3-.3.6-.62.87-.94A16.41,16.41,0,0,0,134.72,43.08Z"/><path class="cls-2" d="M103.51,48.14c.25,0,.49-.09.75-.12-.2,1-.74,1.2.06,1.22-.83-1.14,1.86-1.65,1.1-2.79l.51,0c-.11.06-.07.14-.18.21,1.05,0-.07-1.15.95-1.62.37-.13.7-.11.58.17.17-.25.34-.51.52-.75s.3.13.08.23l1-.75v0a5.13,5.13,0,0,1,.36-1c.38,0-.07.21.08.31.15-.22.3-.44.47-.64.43.18.05.73-.38,1,1.22.84.35-.59,2-.54l-.51.45c.73.49,1.06,0,1.91.12-.25-.16-1.85-.42-1.32-1.07a.91.91,0,0,0,.77-.51c.21.44.53.17,1,0l.22.6c.42-.38.26-.66.45-1.06.58-.19.88.24,1.16.59.94-.21-.9-.53.14-1,.85,0,1.27-.5,2.12-1.09.61.07,0,.4.25.53l.35-.62c.12,0,.12.14.12.22.36-.3-.13-.63.49-1,0-.77,1.57.72,2.23-.2.23.14,0,.4.07.64a9.29,9.29,0,0,0,1.75-1.35l.83.35c-.62-.43.07-1.07.75-1.56a5.38,5.38,0,0,0-.56-.51c.37-.13.74-.27,1.12-.38.14.1,0,.32-.15.59l.2-.16c.4.23.19.6-.08,1l-.4-.39a1.83,1.83,0,0,0-.41,1.21.72.72,0,0,1,.34-.19c-.06.11-.1.2-.07.27s.14-.08.31-.25l.25.71.05-.28c.45.14.89.3,1.32.47,1-.66,1.95-1.66,3.63-1.56-.51.41-.28.81-.46,1.4-.26-.73-1.19,0-1.92-.19.39.12.26.4.15.49a14.21,14.21,0,0,1,1.44-.35c-.14.49.2.43.48.72,0-1,1.16-.38,1.78-.44-.1.33-.34.59-.93.3.4.94,1.33-.77,1.76.14-.15-.07-.21-.15-.34,0a1,1,0,0,1,.75.25c.19.18.27.38.11.45l-.14-.07c.43.3,1.07.75,1.67,1.12s1.16.65,1.54.44a9.83,9.83,0,0,1-1,.64,11.11,11.11,0,0,1,3.53,0,7,7,0,0,0-1.31.86c-.48.32-1,.53-1.38.3a1.14,1.14,0,0,0,.54.87c0-.18.73-.86.91-.68a4.7,4.7,0,0,0-.3.79,2.68,2.68,0,0,1-.25.79c.05-.28,1.25-.42,1.34,0-.18,0-1.08.34-1.23.24a7.27,7.27,0,0,1,1.32.71c-.25-.22-.94.13-1.23.36.22-.12.05.76.14,1l.26-.38c-.17,1,1.55,1.19,1.19,2.46-.17-.23-1.27-.69-1.58-.25a6,6,0,0,1,1.23,1.38,3,3,0,0,1,.52,2.24h-.42c-.1.33-.2.68-.33,1-.13-.53-.27-1.4-.53-2.21a14.79,14.79,0,0,0-.78-2c-.4.24-.4-.07-.61.44-.36,0-.29-.48-.25-.62a6.65,6.65,0,0,1-.76.92c.59.33-.08,1.2.34,1.53a5.25,5.25,0,0,0,.23-.81,3.88,3.88,0,0,0,.12-.79,1.55,1.55,0,0,1,.69,1.11,1.65,1.65,0,0,1-.51,1.52c-.38,0-.71-1-.9-1.12.1.26-.4,1-.59.95l.09-.56c-.57.19-.15,1.32-1.13,1.25-.24.11-1.1-.3-.91.06a6.67,6.67,0,0,1,2.24,3,6.45,6.45,0,0,1-2.18,0c-.69-.31-.1-1.58-.7-1.84a.88.88,0,0,1-.08.59c-.32,0-.17-.55-.66-.19.23.66-1.14.5,0,.64-.46.44-.63.17-1.27.48.4.3,0,1.64-.51,2.06,0-.17-.25-.33-.35-.4-1.23.42-2,.36-3.11.74-.16-.12-.77-.12-.63-.48-.12.17-.2.44-.54.58-.87-.33.75-.35,0-.85.08.39-.73.83-1.15,1.23.35.53,1.19-.28,1.61-.68.28.8-.31,1.94-1.39,2.7-.89.52-.59-.38-.71-.21-1.83.46-1.07,1.9-2.75,1.81-.76-.32-.35-1-.6-1.34.71-.45,1.3-.06,1.82-.25l-.73,0a1.29,1.29,0,0,1,1-.49c-.64-.3-3,.89-4.57.9-.19.25-.56.56-.3.7l.42-.21c.53.29-.65.83,0,.85A2.93,2.93,0,0,1,115,64.25l-.33-.54c.07.17.65.18.83-.07-.27.37-1.51-.4-1.66.48l.71.23c-.5.47-1.05,1.32-1.85,1.35.51.48.15-.12.88.4-.71-.71,1.91-.53.91-1.2.78.63,1,0,1.94.5-.08-.19-.36-.29.29-.39a.84.84,0,0,1,.08-.21h0s0,0,0,0a.78.78,0,0,1-.41-.2c.17-.54,1.16-.83,1.42-1.16.4,0-.08.27.18.41l.39-.5c.18.41,1.2.4.41.93l.79-.23a1.94,1.94,0,0,0,1.53-.32c.4,0,.77-.77.56-.34l1.13-.66,0,.1c1.22-.34,2.23-1.53,3.86-1.23a3.43,3.43,0,0,1,1.48-.66l.27.31c.48-.32,1.76-.27,1.84-.75,1,.73,2.72-1,3.73-1.37l-.22-.46a6.86,6.86,0,0,0,1.82-1.55l-.31-.33c.39-.76,1.81-1,2.68-2,.07.18-.2.4-.44.5a2.49,2.49,0,0,0,1.65-1.85,4.93,4.93,0,0,1,1-2.22,1.09,1.09,0,0,1,.3-.87.21.21,0,0,0,0,.1,1.14,1.14,0,0,0,.05-.15,3.08,3.08,0,0,0,.36-.46,2.39,2.39,0,0,0-.33.38,4.62,4.62,0,0,0,.07-1.18l.51-.11a.73.73,0,0,0,0-.11c.22-.43-.19-.37-.57-.19a2,2,0,0,0-.24-.58c.8-.32-.23-1.08.53-1.6-.2-.13-.35-.65-.59-1.13s-.57-.9-1-.85c.1,0,.11-.17.19,0a1.44,1.44,0,0,0-.5-1.15l.48-.43a10.93,10.93,0,0,0-1.17-.46c0-.66.06-1,.78-.75a9.83,9.83,0,0,1-1.12-.76,2.56,2.56,0,0,0-1-.5l.33-.22c-.3-.31-1.12-.4-1.09-.79-.08-.59-1-1.39-2.15-2.07s-2.57-1.21-3.65-1.84c.17,1.24-1-.77-1.25.11-.08-.29-.39-.5,0-.67-1.24.06-1.79-.69-2.67,0-.12-.28.28-.39.17-.56-.1.05-.4.22-.52,0s.19-.22.39-.33c-1.27,0-1.38.86-1.46,1.66-.59-.37-.9-.31-1.3.24-.22-.25-.58-.5.14-.63-.41,0-2.55-.17-2.5.49-.15-.15-.56,0-.66.14a11.74,11.74,0,0,0-1.85.29l.26.06c-.19.81-.68.29-1.35.57v-.08c-1.72-.12-.61.4-2.34.25l.22.43c.18,1-1.53-.12-2.3.55l.41.15c-.35.47-1.82-.77-2.38-.69-.14,0,.11-.2.23-.33-1.52,0,.08.65-.8,1.18-.31-.23-.13-.88-.8-.66-.44-.08-1.31,1.88-2.43,1.75.31.12.61.25.3.66-.56.44-2.19.15-2.31,1.18a.27.27,0,0,1-.22-.1c-.34.49-1.28,1.3-1.29,1.85-.7-.55-1.26.14-1.74.8s-.9,1.27-1.38.68l-1.21,1.17-.07-.15a1.8,1.8,0,0,0-.92,1.7c-.25.1-.22-.13-.26-.2-1.32.88-1.43,1-1.74,2.52l-.46-.23c0,.23-.53.52-1.14.94a4.05,4.05,0,0,0-1.48,1.82.33.33,0,0,1-.07-.27C93,53.53,90,54.43,91.2,56L91,57.17c.91-1.15.55.6,1.12.26-.22.52-1.24,1-1,.31l.14,0c-.69-.73-1.19,1.39-1.73,1-1.39,2.53-3.05,4.89-4,7.43l.79,0-.38.86c-.25.17-.66.11-.39-.51-.52.19-.08,1.18.07,1.25-.7,1.15-.64-.77-.79-.4l-.12.54.12-.09c.14.52.43.66.14,1.41-.3.44-.51.11-.6.29,0,0-.09,0-.12.29l-.4,1.13.69-.29c.13.59-.34,1.06.44.72-1.23.48-1.48,4.16-1.85,4.57A4,4,0,0,1,83,78.29c.15-.2.81-.21.61.53-1.27-.51-.8,1.28-1.86,1.76.7-.46-.13,2.21.88,1.46-.19.62-.5,0-.88.42a6.09,6.09,0,0,1-.23,2.5,9.81,9.81,0,0,0-.43,2.75c.17,0,.46-.26.7.16l-.94.95c.06.38,1,.39.36,1,.15-.09.38-.22.43,0-1,3.7.63,7.51-.73,11.33.3-.53.36-.19.4.19.06-.26.43,0,.67-.09l-.55,1.61c.69.23.2,1.67.84,1.77l-.16-.48c.8.58,1.57-1.06,2.53-1-.92-.66,1.11-2-.19-3.08.18-.27.32.2.54.05-.43-.27-.53-.63-.38-1.31l.1.07c-.19-1.87.2-2.7.44-4.79l-.47.16a1.54,1.54,0,0,1,.34-.76c-.71-.52,0,1.27-.84.8,1-.6,0-3.21,1.16-3.58,0-.69-.56.19-.52-.51l.3-.17-.38-.19a.78.78,0,0,1,.71-.67c0,.11.06.32.08.43.36-.57,0-1.65.1-1.85l-.22.65c-.17-1.9.41-4.15.07-6l-.24.11c-.23-1.44.38-1.08.44-2.61l0,.06a1.77,1.77,0,0,1-.12-1.17c.19.43.63-.62.82-.07-.14-1.56-.19-.79-.81-1.94l.41-.15a1.34,1.34,0,0,1-.35-1.25c.16.68.67-.35.91.43,1.17-1.35-.24-2.52,1.12-2.91-.79-1-.93,1.18-1,.73-.42.25-.59-.79-.34-1.25s1.49-.49,1.86-1.7c0,.12,0,.15,0,.27.4-.37,0-1,.55-1.42-.48-.51.27-.71-.44-1.06l-.2,1.18c0-.7-.66-1.62.17-2.5a1.85,1.85,0,0,1,.22.77c.33-.22.08-.64.42-.86.72.38-.38,1.39,0,2.27.41-.22-.09-1.46.59-.83-.84-.86.58-1.11.11-2.22l.42.23a1.29,1.29,0,0,1,0-.73l.39.65c-.2-.84,1-1,1-1.75-.54,1.27-.65.05-1.2.45.12-1.85,1.51-.41,2.15-2.19-.05.26-.69.74-.7.28a2.36,2.36,0,0,1,.95-.71c.47-1.17-.52-.05-.54-.67.7-.12.09-.66.21-1.24l.42.23c1-1.1-.68-.84.3-1.79l.3.83c.06-.22.12-.46.19-.68l.39.4c0-.83.27-1,.79-1.49-.38,0-.68-.56-.34-1.12.48-.21.23.45.71-.33.13.34.3.73-.27.82.11.12.14.34.25.46.51-.22.72-.93.91-1.19a.74.74,0,0,1-.3.22l.23-1.46c.27-.06.29.16.31.38.11-.25,0-.53.24-.87.25.32.59.55.42,1.1.12-.42.25-.84.41-1.25.19,0,.77-.2.78,0,.6-.38.46-1.8,1.32-2.26a.54.54,0,0,1,.07-.39c.63-.59,1.5-.79,1.85-1.87l.89.1c.45-.67-1.17-.09-.4-1.22.56-.79.67.21,1,.14.11-.56.24-1.67,1.29-1.77C103.91,47.86,103.68,47.93,103.51,48.14Zm8-5.62c-.13.18-.32.63-.57.43C110.89,42.37,111.16,42.53,111.52,42.52ZM125.73,38c-.15.16-.36.07-.61-.11A.85.85,0,0,1,125.73,38Zm-5.65,25.63v0C120.58,63.59,120.41,63.57,120.08,63.58Zm-1,.09a.13.13,0,0,0,0,.21c0-.14.22-.21.46-.25C119.5,63.53,119.36,63.48,119.12,63.67Zm-34.64,6,.18-.14C84.66,70,84.58,69.81,84.48,69.65Z"/><path class="cls-2" d="M124.05,38.63a.62.62,0,0,1-.09-.26C123.89,38.46,123.89,38.55,124.05,38.63Z"/><path class="cls-2" d="M99.32,52.57l0,0a.26.26,0,0,0,0,.08Z"/><path class="cls-2" d="M131,54.88a.75.75,0,0,1,.42.05C131.41,54.83,131.28,54.78,131,54.88Z"/><path class="cls-2" d="M114.61,65.92l.54-.29a.79.79,0,0,1-.57,0C114.64,65.74,114.79,65.86,114.61,65.92Z"/><path class="cls-2" d="M108.78,64.52c-.07.08-.18.06-.24.14l.08.21C109,64.75,109.18,64.51,108.78,64.52Z"/><path class="cls-2" d="M113.62,64.55c-.16-.38-.48-.14-.86.06l.07,0C112.87,65.16,113.25,64.86,113.62,64.55Z"/><path class="cls-2" d="M112.67,64.65a1.31,1.31,0,0,1-.37.12C112.32,65,112.46,64.77,112.67,64.65Z"/><path class="cls-2" d="M118.07,64.28c-.22,0,0,.53-.12.41C117.89,65.25,119,63.69,118.07,64.28Z"/><polygon class="cls-2" points="112.91 63.37 113.2 63.8 113.31 63.35 112.91 63.37"/><path class="cls-2" d="M116.18,62.76l-.68.06c0,.08,0,.15-.12.22C115.78,62.93,116.24,62.89,116.18,62.76Z"/><path class="cls-2" d="M115.38,63a1,1,0,0,0-.49.24A2.12,2.12,0,0,0,115.38,63Z"/><polygon class="cls-2" points="113.74 62.96 113.96 63 114.42 62.9 113.74 62.96"/><path class="cls-2" d="M123.05,60.64l.65-.37c0-.19-.21-.22-.44-.07S122.89,60.52,123.05,60.64Z"/><path class="cls-2" d="M120.53,60c.22,0,.27.14.42.26l-.17-.6Z"/><path class="cls-2" d="M122.5,59.23c0-.19.84-.8,0-.47C122.46,58.94,121.82,59.31,122.5,59.23Z"/><polygon class="cls-2" points="132.82 55.81 132.66 55.91 133.21 56.77 132.82 55.81"/><path class="cls-2" d="M136,48.2c-.36.53.58.26.18.74.21.21.33-.4.5-.21C136.48,48.29,136.67,48.14,136,48.2Z"/><path class="cls-2" d="M136.65,48.74a1.65,1.65,0,0,0,.11.24A.65.65,0,0,0,136.65,48.74Z"/><polygon class="cls-2" points="81.02 104.03 80.86 104.61 81.17 104.22 81.02 104.03"/><path class="cls-2" d="M81.87,105l-.63.2.62.28C81.82,105.39,81.74,105.15,81.87,105Z"/><path class="cls-2" d="M113.36,43.11l0-.16c-.14-.12-.26-.09-.49,0Z"/><polygon class="cls-2" points="107.09 46.06 107.2 46.01 106.68 45.65 107.09 46.06"/><path class="cls-2" d="M103,50.28c.19-.14.32-.42.51-.56C103.19,50.14,102.45,49.78,103,50.28Z"/><path class="cls-1" d="M79.74,97.34C71.88,77.9,63.9,58,63,37c-.31-7.56.38-15.4,3.9-22.1s10.34-12,17.88-12a8.78,8.78,0,0,1,6.05,2c3.31,3.11,2.07,8.61.23,12.77a79.85,79.85,0,0,1-24.41,31"/><path class="cls-2" d="M68.31,50.42c-.22.13.1.41.12.49C68.71,50.57,68.24,50.34,68.31,50.42Z"/><polygon class="cls-2" points="70.98 47.03 71.03 47.21 71.23 46.49 70.98 47.03"/><path class="cls-2" d="M73.89,44.43c-.75-.26-1,1-1.65,1.32l-.19,0,.15.64C72.76,45.71,73.33,44.7,73.89,44.43Z"/><path class="cls-2" d="M76.47,44.08c-.29-.11.16-.49-.41.28h.11A3.88,3.88,0,0,1,76.47,44.08Z"/><path class="cls-2" d="M76.18,44.36c-.29.3.36,0,0,0Z"/><path class="cls-2" d="M77.42,42.87l-.21.57c.2,0,.57-.29.53-.08C78,42.86,77.84,42.83,77.42,42.87Z"/><path class="cls-2" d="M77.41,42.14l-.12.28C77.37,42.42,77.44,42.39,77.41,42.14Z"/><path class="cls-2" d="M77,43l.26-.58c-.14,0-.31-.18-.14.25C77,42.48,77.1,42.71,77,43Z"/><path class="cls-2" d="M76.71,43.16c-.33.11-.67.32-.46-.24C75.58,43.73,76,44,76.71,43.16Z"/><path class="cls-2" d="M73.52,43.76l-.43.13L73,44.3C73,44.09,73.7,43.9,73.52,43.76Z"/><path class="cls-2" d="M80,40.61c-.09-.13-.43-.13-.6-.23l-.15.42C79.52,40.71,79.86,40.48,80,40.61Z"/><path class="cls-2" d="M79.44,40.38l.21-.63C79.28,40.14,79.29,40.29,79.44,40.38Z"/><polygon class="cls-2" points="76.91 41.52 76.61 42.6 77.03 41.38 76.91 41.52"/><polygon class="cls-2" points="81.59 38.86 81.63 39.35 81.63 38.54 81.59 38.86"/><path class="cls-2" d="M82.52,37.62c.06.38.61,0,.57.36a2.53,2.53,0,0,0,.29-1.19A1.43,1.43,0,0,1,82.52,37.62Z"/><path class="cls-2" d="M83.46,36.16a3.49,3.49,0,0,0-.07.63A1.56,1.56,0,0,0,83.46,36.16Z"/><path class="cls-2" d="M80.38,39a.72.72,0,0,0,.64-.08l-.48-.1Z"/><path class="cls-2" d="M80.53,38.84h0l.36-.37Z"/><path class="cls-2" d="M80.34,39.07l0,0S80.32,39,80.34,39.07Z"/><path class="cls-2" d="M78.26,40.63c.07-.42.37-1.13-.38-.86C77.93,40.16,78.36,40,78.26,40.63Z"/><path class="cls-2" d="M79.74,38.94l-.49.42c.09.07.29.09.27.3Z"/><polygon class="cls-2" points="79.85 38.61 79.75 38.94 79.93 38.78 79.85 38.61"/><path class="cls-2" d="M82.45,36.78a2,2,0,0,1,.4-.87,5.91,5.91,0,0,0-.79.78C82.13,36.82,82.22,37.1,82.45,36.78Z"/><path class="cls-2" d="M81.5,37.77l0-.06C81.47,37.71,81.44,37.73,81.5,37.77Z"/><polygon class="cls-2" points="84.88 33.21 84.78 33.21 84.83 33.27 84.88 33.21"/><path class="cls-2" d="M82,36.7a.58.58,0,0,0-.26.56,3.48,3.48,0,0,1,.36-.56C82,36.64,82,36.62,82,36.7Z"/><path class="cls-2" d="M83.87,35.29a3.26,3.26,0,0,0-.48.24C83.59,35.5,83.93,35.4,83.87,35.29Z"/><path class="cls-2" d="M81.67,37.71v0C81.79,37.74,81.74,37.72,81.67,37.71Z"/><path class="cls-2" d="M81.67,37.71a1.55,1.55,0,0,0,0-.45,2.06,2.06,0,0,0-.18.45Z"/><path class="cls-2" d="M83.22,30.81c.3.26.18,1.05-.52,1.3-.11.66,1.17,1.12,2.07,1.1-.13-.12-.26-.21-.08-.86-.31.06-1.22.84-1.2.2.31-.79.51-.47.91-.68-.6,0,0-1.27-.69-1.53l-.2.73C83.42,31,83.42,30.71,83.22,30.81Z"/><path class="cls-2" d="M84,34.17l-.12.24a2.55,2.55,0,0,1,1-.41c.1-.47,0-.63-.06-.73-.27.34-.52.68-.8,1Z"/><path class="cls-2" d="M83.21,35.34c-.22-.43,0-1-.59-1-.44.62,0,.64-.16,1.12.66-1,0,.43.71-.13a3.18,3.18,0,0,1-.32.6,4.67,4.67,0,0,1,.54-.39h0c-.07,0-.11,0-.05,0s0,0,0,0a.54.54,0,0,1-.09-.14c.29-.23.12,0,.09.14l0,.05h0l.56-1.13A4.08,4.08,0,0,0,83.21,35.34Z"/><path class="cls-2" d="M77.63,38.68a.13.13,0,0,1,.1,0C77.75,38.62,77.74,38.58,77.63,38.68Z"/><path class="cls-2" d="M78.16,38.48c0,.11.07.28-.15.46s-.15-.14-.27-.22c0,.2-.18.65.34.39V39c.43-.27,1.25-.39,1.24-.29A3,3,0,0,0,78.16,38.48Z"/><path class="cls-2" d="M80.64,36.87l.48-.92-.62.17.19.12C80.26,36.62,80.55,36.7,80.64,36.87Z"/><polygon class="cls-2" points="85.12 33.24 85.41 33.62 85.23 32.76 85.12 33.24"/><polygon class="cls-2" points="85.86 32.12 86.15 32.38 86.16 31.95 85.86 32.12"/><path class="cls-2" d="M65.45,30.3l.1.29A1,1,0,0,0,65.45,30.3Z"/><path class="cls-2" d="M65.64,28.27l-.19-.07C65.55,28.31,65.62,28.36,65.64,28.27Z"/><path class="cls-2" d="M88.52.88c-.42-.51-.94-1.18-1-.73l.08.46A1.4,1.4,0,0,1,88.52.88Z"/><path class="cls-2" d="M69,11.79l.18,0L69,11.28Z"/><path class="cls-2" d="M70.3,13.08l-.54.26A1.91,1.91,0,0,0,70.3,13.08Z"/><path class="cls-2" d="M66.19,41.53l.47.29C66.61,41.31,66.41,41.56,66.19,41.53Z"/><path class="cls-2" d="M92.56,20.12a2.86,2.86,0,0,0,.64-.76C92.78,19.69,92.29,19.86,92.56,20.12Z"/><path class="cls-2" d="M60.91,29.15c.06.19.15.28.24.28C61.1,29.24,61,29.12,60.91,29.15Z"/><path class="cls-2" d="M93.66,18.34c-.07,0-.12.1-.18.16a2.47,2.47,0,0,1-.28.87A.94.94,0,0,0,93.66,18.34Z"/><path class="cls-2" d="M76.22,81.69a.89.89,0,0,1,0,.11C76.26,81.79,76.25,81.75,76.22,81.69Z"/><path class="cls-2" d="M76.64,94.74a3.28,3.28,0,0,1-.22-.46A1,1,0,0,0,76.64,94.74Z"/><path class="cls-2" d="M88.95,27.67c-.12.26,0,.06,0,0Z"/><path class="cls-2" d="M86.76,27.95a.28.28,0,0,0-.12-.21A.35.35,0,0,1,86.76,27.95Z"/><path class="cls-2" d="M92.12,14.7v0C92,14.73,92,14.72,92.12,14.7Z"/><path class="cls-2" d="M88.56,27.94a1.4,1.4,0,0,0,.3-.25A2.13,2.13,0,0,0,88.56,27.94Z"/><path class="cls-2" d="M88.76,28l-.17.19C88.64,28.25,88.69,28.25,88.76,28Z"/><path class="cls-2" d="M89.13,27.31a1.82,1.82,0,0,1-.27.38c.05,0,.09,0,.09,0Z"/><path class="cls-2" d="M68.14,60.73a.55.55,0,0,1,0,.07C68.36,61,68.3,60.91,68.14,60.73Z"/><path class="cls-2" d="M81.24,5.36l0,0h0Z"/><path class="cls-2" d="M80.49,5.92c.19-.62.43-.63.73-.59-.2-.39-.4-.75-.61-1.13Q80.52,5.07,80.49,5.92Z"/><path class="cls-2" d="M65.48,35.22l.38-.68c.65.8.44,1.38,1,.74-1.37-.07-.16-2.57-1.5-2.68l.3-.43c0,.13.06.15,0,.27.68-.83-1-.67-.72-1.77.12-.38.33-.64.48-.37l-.28-.88c0-.25.28-.17.23.08,0-.44,0-.87,0-1.31h0a5.18,5.18,0,0,1-.59-.89c.23-.31.12.18.3.12-.09-.25-.15-.51-.23-.76.39-.24.64.39.54.88,1.43-.5-.27-.64.73-2l.07.69c.82-.31.64-.86,1.24-1.5-.28.11-1.45,1.26-1.65.45a.91.91,0,0,0,0-.93c.47.09.44-.33.52-.83l.62.17c-.06-.57-.38-.6-.59-1,.2-.58.72-.57,1.16-.6.36-.89-.95.43-.75-.7A3.7,3.7,0,0,0,67.2,19c.41-.45.33.23.57.11l-.3-.65c.06-.11.19,0,.25,0,0-.47-.59-.27-.48-1-.29-.22.09-.45.49-.73s.84-.62.67-1.17c.26-.09.3.27.55.33a8.74,8.74,0,0,0,0-2.17l.78-.44c-.72.22-.79-.72-.74-1.56a5.37,5.37,0,0,0-.75.12l.4-1.12c.17,0,.26.18.37.49V11c.44-.17.59.23.7.66l-.55.08a1.82,1.82,0,0,0,.69,1.08.72.72,0,0,1,.06-.38c0,.12.1.21.17.22s0-.16,0-.4l.7.24-.19-.22,1.2-.75c.1-1.16-.08-2.57,1-3.87,0,.66.49.7.87,1.19-.77-.23-.71,1-1.36,1.45.35-.24.49,0,.49.18.2-.45.38-.95.62-1.4.31.4.48.09.89,0-.87-.61.4-1.18.7-1.77.22.25.31.62-.29,1,1,.15.12-1.56,1.14-1.45-.14.1-.25.11-.21.29.17-.49,1.16-.79,1.1-.41l-.14.09a8.21,8.21,0,0,0,.9-.46,8.21,8.21,0,0,0,1-.58c.63-.39,1.14-.83,1.08-1.27a8.58,8.58,0,0,1,.19,1.21A17.29,17.29,0,0,1,81,2.44c0,.75,1,2.31.22,2.9a1.2,1.2,0,0,0,1.09-.27c-.18-.07-.64-.94-.4-1.06a8,8,0,0,0,1.46.93c-.28-.11-.11-1.33.36-1.3-.06.17.11,1.13,0,1.25q.47-.58,1-1.17c-.28.22,0,.95.18,1.27-.1-.23.86,0,1.12,0l-.4-.3c.56.13.87-.22,1.24-.56a1.26,1.26,0,0,1,1.39-.47c-.24.17-.75,1.25-.3,1.56A5.94,5.94,0,0,1,89.43,4a2.64,2.64,0,0,1,2.31-.27,4.1,4.1,0,0,1,0,.43,7.8,7.8,0,0,1,1,.56,10.86,10.86,0,0,0-2.29.12,9,9,0,0,0-2,.66c.2.4-.08.38.35.61,0,.34-.46.26-.58.22a3,3,0,0,1,.65.7.65.65,0,0,1,.72-.19c.26,0,.48.17.71,0a2.85,2.85,0,0,0-.68-.28,2.64,2.64,0,0,0-.66-.14,1.5,1.5,0,0,1,1.13-.6,1.84,1.84,0,0,1,.77.15,1.39,1.39,0,0,1,.56.57c-.11.36-1.12.44-1.3.61.26-.06.78.51.64.67a2.54,2.54,0,0,0-.47-.19c0,.25.24.35.49.49a.47.47,0,0,1,.16.75c0,.24-.76.73-.38.73.75-.39,3.05-.87,3.69-.57,0,.06-.18.5-.38.94a3.5,3.5,0,0,1-.71,1c-.32.21-.66,0-1-.18s-.68-.36-.94-.2a.81.81,0,0,1,.46.36c-.18.25-.56-.15-.53.42.68.17-.23,1.17.54.34.11.61-.22.59-.34,1.27.48-.14,1.33,1,1.32,1.65a.8.8,0,0,0-.53,0c-.45,1.22-1,1.75-1.46,2.83-.2,0-.62.48-.79.13a1.14,1.14,0,0,1,0,.79c-.83.4.26-.78-.61-.59.34.21.1,1.09.1,1.67.62.12.62-1.06.61-1.63.77.34,1.2,1.56,1,2.89-.27,1-.69.15-.66.36-1,1.63.57,2.13-.73,3.26-.77.3-1-.49-1.36-.55.21-.82.9-.95,1.15-1.45l-.55.48a1.36,1.36,0,0,1,.38-1.05c-.66.24-1.58,2.78-2.71,3.79,0,.31,0,.8.25.72l.17-.44c.59-.15.08,1.06.55.66a2.9,2.9,0,0,1-.7,2.16l-.61-.19c.16.08.61-.29.59-.6,0,.46-1.4.7-1,1.46l.69-.29c-.08.7,0,1.71-.58,2.26.7,0,0-.19.95-.26-1-.08,1.16-1.67-.05-1.52,1,0,.82-.66,1.82-.93-.18-.09-.47,0,0-.49a.83.83,0,0,1-.07-.22l0,0,0,0s0,0,0,0a.8.8,0,0,1-.44.13c-.21-.52.33-1.42.3-1.85.28-.29.12.26.41.18l0-.64c.41.18,1.18-.54.94.4l.44-.72a2.06,2.06,0,0,0,.9-1.33c.28-.3,0-1.11.18-.65l.35-1.3.11,0c.65-1.14.48-2.7,1.85-3.74A4.23,4.23,0,0,1,94,16.86h.42c.08-.6.95-1.63.62-2,.59-.18.84-.93.94-1.78s0-1.79.13-2.4l-.51-.06A6.08,6.08,0,0,0,95.09,8l-.43.15a4.47,4.47,0,0,1-.44-1.59,4.66,4.66,0,0,0-.26-1,3.07,3.07,0,0,0-.52-1c.19,0,.41.33.44.62a2.18,2.18,0,0,0-.55-1.34,4.33,4.33,0,0,0-1.17-.87,7.27,7.27,0,0,1-2.29-1.29A1.22,1.22,0,0,1,89,1.3h.1L89,1.26a4.43,4.43,0,0,0-.44-.38,2.3,2.3,0,0,0,.36.36,3.71,3.71,0,0,0-1.15-.12L87.64.61h-.1c-.39-.25-.36.17-.22.56a1.7,1.7,0,0,0-.57.2c-.23-.82-1,.15-1.43-.69C85,1,83.36,1,83.24,1.9c0-.11-.14-.15.06-.18a1.47,1.47,0,0,0-1.18.2l-.27-.58c-.26.32-.5.66-.74,1-.61-.25-.91-.41-.46-1a8.26,8.26,0,0,1-1,.79,2.65,2.65,0,0,0-.82.78l-.08-.39c-.38.16-.77.88-1.11.66a4.61,4.61,0,0,0-2.71.91c-1.12.65-2.31,1.47-3.41,2,1.1.6-1.17.3-.62,1.05-.28-.11-.63,0-.52-.43-.68,1-1.6,1-1.59,2.09-.3-.08-.13-.46-.33-.48,0,.11-.08.44-.28.43s-.07-.29,0-.51c-.77,1-.17,1.61.39,2.17-.67.22-.8.52-.62,1.17-.33,0-.76.14-.41-.51-.3.29-1.74,1.91-1.18,2.28-.2,0-.32.48-.31.61a8.93,8.93,0,0,0-.89,1.67l.2-.18c.53.64-.14.74-.35,1.44l-.06,0c-1.12,1.33,0,.74-1.17,2.06l.48.07c.92.46-1,1.17-.9,2.2l.36-.25c.2.57-1.71,1-2,1.54-.11.09-.1-.21-.13-.38-.89,1.23.57.31.5,1.34-.37.12-.8-.41-1,.26-.34.31.74,2.16,0,3,.29-.17.57-.34.7.15,0,.71-1.19,1.84-.41,2.55a.29.29,0,0,1-.21.11c.17.56.25,1.79.69,2.13-1.69.47.76,3.36-.75,3.34,0,.56.08,1.11.12,1.66l-.16,0a1.85,1.85,0,0,0,.73,1.77c-.09.25-.24.08-.32.06a2.94,2.94,0,0,0,.71,2.94l-.48.18c.33.32-.55,2.3.19,3.75a.35.35,0,0,1-.24-.14c.82,1.6-.81,4.27,1.11,4.59l.63,1c-.11-1.45.81.08,1-.56.2.53-.28,1.53-.49.86l.07-.12c-1-.09,0,1.83-.65,1.91A42,42,0,0,1,64,57c.2,1.38.37,2.74.69,4l.63-.48.2.91c-.1.28-.47.46-.61-.19-.31.44.63,1,.78,1,.05,1.33-1-.27-.87.12l.19.51.05-.14c.4.35.72.3.89,1.08,0,.53-.37.37-.34.57,0,0-.06.09.06.3l.27,1.14.42-.61c.42.42.28,1.06.76.36-.37.52-.15,1.59.15,2.6a9.3,9.3,0,0,1,.63,2.22,4,4,0,0,1,1.06,2.1c0-.25.62-.57.79.17-1.36.16-.1,1.51-.82,2.41.42-.73.86,2,1.43.89.11.64-.46.2-.6.76,1,1.25.8,3.27,1.63,5,.17,0,.32-.42.7-.14l-.48,1.24c.21.32,1.07,0,.74.81.1-.14.26-.35.4-.14.51,3.74,3.36,6.72,3.25,10.76.13-.59.29-.3.44.06,0-.26.41-.16.61-.29l0,1.69c.72,0,.67,1.53,1.31,1.44L78,96.7c.94.33,1.2-1.47,2.12-1.74-1.06-.36.44-2.26-1.13-2.92.08-.32.37.09.52-.12-.49-.13-.71-.44-.79-1.14l.12,0c-.81-1.74-.72-2.65-1.26-4.74l-.38.32a1.57,1.57,0,0,1,0-.84c-.86-.23.44,1.22-.48,1.06.67-.92-1.15-3-.28-3.81-.25-.66-.44.39-.69-.27l.21-.28-.42,0a.8.8,0,0,1,.39-.91c0,.12.18.27.24.38.12-.68-.7-1.54-.67-1.78l.07.7c-.94-1.71-1.37-4-2.56-5.6l-.16.21c-.86-1.21-.14-1.16-.82-2.57l.07,0a1.83,1.83,0,0,1-.67-1c.37.29.24-.86.69-.46-.9-1.32-.57-.61-1.67-1.33l.28-.34c-.42-.23-.6-.2-.93-.92.5.51.39-.64,1-.09.27-1.79-1.49-2.08-.57-3.14-1.2-.43-.15,1.52-.48,1.18-.22.44-.91-.37-1-.9s1-1.22.62-2.47c0,.13.1.11.14.24.12-.54-.59-.83-.34-1.52-.69-.16-.17-.76-1-.65l.49,1.11c-.38-.6-1.44-1-1.3-2.19a1.9,1.9,0,0,1,.64.51c.14-.38-.32-.57-.17-1,.79-.1.55,1.37,1.32,1.91.23-.42-.91-1.18,0-1-1.19-.23-.2-1.27-1.21-1.93l.47-.06c-.11-.12-.39-.35-.44-.6l.71.31c-.68-.57.12-1.44-.31-2,.35,1.39-.48.44-.68,1.11-1-1.58,1-1.27.33-3.14.12.25-.07,1-.37.68a2.52,2.52,0,0,1,.29-1.19c-.36-1.26-.44.3-.84-.19.47-.55-.36-.58-.66-1.11l.47-.1c0-1.52-1.06-.2-.93-1.6l.76.44-.29-.66.57,0a1.93,1.93,0,0,1-.45-1.69c-.3.23-.89,0-1-.61.22-.49.49.18.29-.74.33.16.73.33.35.81.16,0,.34.16.5.17.24-.53-.1-1.21-.16-1.54a.78.78,0,0,1-.06.38l-.85-1.25c.15-.24.32-.09.48.06-.09-.26-.34-.42-.43-.82.4.05.8,0,1.06.51l-.61-1.21c.15-.11.39-.71.55-.56.16-.73-.93-1.65-.73-2.62a.58.58,0,0,1-.24-.33c0-.89.45-1.7-.16-2.72l.67-.63c-.21-.81-.83.85-1.18-.5-.28-1,.58-.39.76-.73-.37-.46-1.12-1.29-.55-2.18C65.53,34.71,65.43,34.94,65.48,35.22Zm.35-10c.07.21.31.63,0,.72C65.33,25.68,65.62,25.55,65.83,25.26Zm4.84-14.07c0,.21-.17.33-.47.41A.88.88,0,0,1,70.67,11.19ZM90.16,24.76v0C90.54,24.41,90.39,24.52,90.16,24.76Zm-.65.74c0,.12.07.14.15.14-.07-.12,0-.31.17-.51C89.69,25.13,89.57,25.2,89.52,25.5ZM65.78,64.44l.07-.21C66.09,64.59,65.94,64.51,65.78,64.44Z"/><path class="cls-2" d="M70.15,12.93a.62.62,0,0,1-.26-.09C69.91,13,70,13,70.15,12.93Z"/><path class="cls-2" d="M66.11,41.48v0l.09,0Z"/><path class="cls-2" d="M90.93,10.93a.76.76,0,0,1,.27-.3C91.08,10.62,91,10.68,90.93,10.93Z"/><path class="cls-2" d="M87.57,30.3l.23-.59a.8.8,0,0,1-.43.39C87.46,30.14,87.67,30.13,87.57,30.3Z"/><path class="cls-2" d="M82.09,32.93c0,.1-.11.15-.11.26l.19.12C82.39,33,82.4,32.68,82.09,32.93Z"/><path class="cls-2" d="M85.91,29.89c-.37-.18-.46.21-.64.6l0-.06C85.71,30.86,85.81,30.37,85.91,29.89Z"/><path class="cls-2" d="M85.23,30.59a1.35,1.35,0,0,1-.21.33C85.18,31.09,85.15,30.81,85.23,30.59Z"/><path class="cls-2" d="M89.13,26.69c-.19.12.38.37.18.39C89.65,27.54,89.47,25.58,89.13,26.69Z"/><polygon class="cls-2" points="84.6 29.44 85.1 29.59 84.9 29.17 84.6 29.44"/><path class="cls-2" d="M86.7,26.84l-.48.5c.08,0,.07.13,0,.24C86.51,27.24,86.84,26.9,86.7,26.84Z"/><path class="cls-2" d="M86.28,27.58a1,1,0,0,0-.22.5A2.14,2.14,0,0,0,86.28,27.58Z"/><polygon class="cls-2" points="84.99 28.6 85.18 28.49 85.46 28.11 84.99 28.6"/><path class="cls-2" d="M90.26,20.53l.19-.72c-.13-.14-.3,0-.36.27S90.06,20.56,90.26,20.53Z"/><path class="cls-2" d="M88,21.88c.19-.12.29-.08.49-.11L88,21.47Z"/><path class="cls-2" d="M88.86,19.93c-.12-.14,0-1.15-.35-.32C88.63,19.76,88.44,20.46,88.86,19.93Z"/><path class="cls-2" d="M92.66,9.95a1.4,1.4,0,0,1,0,.18l1,0Z"/><path class="cls-2" d="M86.68,5.77c.55.38.3-.58.78-.13.22-.19-.39-.37-.19-.53C86.8,5.25,86.63,5.08,86.68,5.77Z"/><path class="cls-2" d="M87.27,5.11,87.52,5A.64.64,0,0,0,87.27,5.11Z"/><polygon class="cls-2" points="76.9 96.84 76.91 97.43 77.09 96.97 76.9 96.84"/><path class="cls-2" d="M78,97.55l-.55.37.67.09C78,97.9,77.9,97.69,78,97.55Z"/><path class="cls-2" d="M67.39,24.09,67.24,24c-.18,0-.22.16-.29.39Z"/><polygon class="cls-2" points="66.05 31 66.07 30.88 65.47 31.09 66.05 31"/><path class="cls-2" d="M66.8,37c0-.25-.13-.53-.11-.78C66.81,36.79,66.08,37.14,66.8,37Z"/><path class="cls-3" d="M38.77,137.19c18.42,1.67,36.69-3.85,55.16-5,15.25-1,31.05.92,45.47-4.16,1.22-.43,2.64-.89,3.74-.22a4,4,0,0,1,1.32,1.69c5.06,10,4.54,22.24.05,32.49s-12.6,18.61-21.87,24.87a83.18,83.18,0,0,1-37.25,13.68c-8,.88-16.37.54-23.75-2.71-16-7.06-23.38-25.53-27.34-42.59-1.56-6.7-2.3-15,3.14-19.22"/><path class="cls-2" d="M35.62,134.34c.46-.35,0-.54.06-.66C35,134.4,35.71,134.4,35.62,134.34Z"/><path class="cls-2" d="M32.08,142.41l-.14-.18c.06.43.1.86.2,1.27C32.1,143.14,32.1,142.78,32.08,142.41Z"/><path class="cls-2" d="M31.88,149.94c.63-.75-.34-2.67,0-4l.17-.22-.54-.64C31.43,146.74,31.94,148.8,31.88,149.94Z"/><path class="cls-2" d="M31,154.11c.23-.3.4.8-.09-.94a1.5,1.5,0,0,1,0,.18C30.88,153.52,30.92,153.74,31,154.11Z"/><path class="cls-2" d="M30.84,153.36c-.17-.78-.13.55,0,0Z"/><path class="cls-2" d="M31.77,156.85l-.48-.92c-.11.24.07,1.12-.13.83C31.54,157.73,31.64,157.48,31.77,156.85Z"/><path class="cls-2" d="M32.5,157.65l-.23-.48C32.23,157.28,32.24,157.41,32.5,157.65Z"/><path class="cls-2" d="M31.8,156.15l.48,1c.08-.17.3-.24-.2-.47C32.3,156.74,32.05,156.57,31.8,156.15Z"/><path class="cls-2" d="M31.76,155.51c0-.6,0-1.34.43-.39C31.69,153.23,31.24,153.6,31.76,155.51Z"/><path class="cls-2" d="M32.65,150.23c0-.26.09-.52.13-.77l-.3-.63C32.63,149.14,32.42,150.3,32.65,150.23Z"/><path class="cls-2" d="M33,163c.16,0,.29-.44.46-.56l-.36-.67C33.09,162.18,33.2,162.91,33,163Z"/><path class="cls-2" d="M33.46,162.45l.57,1C33.78,162.49,33.6,162.35,33.46,162.45Z"/><polygon class="cls-2" points="33.31 157.63 32.35 156 33.4 157.97 33.31 157.63"/><polygon class="cls-2" points="34.26 167.11 33.72 166.62 34.58 167.53 34.26 167.11"/><path class="cls-2" d="M35.24,169.79c-.44-.35-.24.78-.58.37a6.94,6.94,0,0,0,1.21,1.73A4.63,4.63,0,0,1,35.24,169.79Z"/><path class="cls-2" d="M36.54,172.7c-.19-.27-.42-.53-.67-.81A3.36,3.36,0,0,0,36.54,172.7Z"/><path class="cls-2" d="M34.5,165.28a1.19,1.19,0,0,0-.14,1l.27-.55Z"/><path class="cls-2" d="M34.64,165.69v0l.28.91Z"/><path class="cls-2" d="M34.47,165.18l0,.11C34.53,165.23,34.54,165.2,34.47,165.18Z"/><path class="cls-2" d="M33.66,160.53c.4.57,1,1.8,1,.44C34.27,160.6,34.26,161.38,33.66,160.53Z"/><path class="cls-2" d="M34.83,164.5l-.24-1.15c-.1.05-.2.3-.4,0Z"/><polygon class="cls-2" points="35.12 165.01 34.83 164.5 34.92 164.93 35.12 165.01"/><path class="cls-2" d="M36.18,170.64a6,6,0,0,1,.82,1.52,18,18,0,0,0-.6-2C36.24,170.16,35.91,170,36.18,170.64Z"/><path class="cls-2" d="M35.43,168.23l.06.1C35.5,168.25,35.5,168.19,35.43,168.23Z"/><polygon class="cls-2" points="39.54 177.89 39.56 177.77 39.49 177.78 39.54 177.89"/><path class="cls-2" d="M36.44,170.06a1.74,1.74,0,0,0-.53-1,11.73,11.73,0,0,1,.5,1.12C36.47,170.22,36.51,170.21,36.44,170.06Z"/><path class="cls-2" d="M37.4,174.24a9,9,0,0,0-.13-.91C37.25,173.62,37.26,174.2,37.4,174.24Z"/><path class="cls-2" d="M35.44,168.53l0-.07C35.36,168.65,35.4,168.62,35.44,168.53Z"/><path class="cls-2" d="M35.44,168.53a2.87,2.87,0,0,0,.47.55c-.14-.28-.27-.54-.41-.75A.76.76,0,0,1,35.44,168.53Z"/><path class="cls-2" d="M42.84,178.31c-.39.11-1.36-.88-1.43-2.1-.74-.88-1.62.32-1.84,1.55.18,0,.29-.1,1,.83,0-.45-.67-2.56.07-1.82.83,1.3.43,1.19.59,2,.14-.78,1.55,1.39,2,.74l-.85-1C42.53,178.34,42.92,178.68,42.84,178.31Z"/><path class="cls-2" d="M38.64,175.72l-.25-.42a6,6,0,0,1,.23,1.75c.52.65.73.74.87.73l-1-2.19Z"/><path class="cls-2" d="M37.54,173.3c.54.19,1.16,1.17,1.31.34-.57-1.28-.71-.77-1.21-1.48,1,2.06-.48-.52-.06,1.1a10.55,10.55,0,0,1-.58-1.1c.11.4.2.79.28,1.17v-.06h0c0-.11,0-.15,0,0l0,0a.41.41,0,0,1,.19,0c.17.65-.06.14-.19,0h-.07l1.11,2A14.69,14.69,0,0,0,37.54,173.3Z"/><path class="cls-2" d="M35.88,161.87c0,.08,0,.08-.08.1S35.95,162.14,35.88,161.87Z"/><path class="cls-2" d="M35.89,162.83a1.25,1.25,0,0,1-.42-.74c0-.48.2-.05.33-.12-.21-.27-.6-1-.53,0l.1.14a4.09,4.09,0,0,1-.16,2A3.29,3.29,0,0,0,35.89,162.83Z"/><path class="cls-2" d="M36.69,168.08c.26.57.56,1.13.84,1.7l0-1-.19.12C37.06,167.85,36.9,168.15,36.69,168.08Z"/><path class="cls-2" d="M39.44,178.19l-.52,0c.35.24.7.48,1.07.71C39.81,178.64,39.61,178.42,39.44,178.19Z"/><polygon class="cls-2" points="40.65 180.38 40.26 180.49 40.78 180.96 40.65 180.38"/><path class="cls-2" d="M145.3,150.51l0-.52A2.74,2.74,0,0,0,145.3,150.51Z"/><path class="cls-2" d="M144.58,154.17l.17.13C144.69,154.11,144.63,154,144.58,154.17Z"/><path class="cls-2" d="M94,201.61c.88.19,1.91.54,1.71.13l-.34-.37A3.55,3.55,0,0,1,94,201.61Z"/><path class="cls-2" d="M129.55,181.41l-.26.05-.14.66Z"/><path class="cls-2" d="M128.78,179.69l1-.47A5.27,5.27,0,0,0,128.78,179.69Z"/><path class="cls-2" d="M142.08,131.07a.7.7,0,0,0-.46.06s.12.12.19.08S142,131.1,142.08,131.07Z"/><path class="cls-2" d="M58.59,198.91A9.66,9.66,0,0,0,60.13,200C59.43,199.34,59,198.7,58.59,198.91Z"/><path class="cls-2" d="M149.61,152.77c0-.36-.07-.52-.17-.53C149.44,152.61,149.49,152.83,149.61,152.77Z"/><path class="cls-2" d="M62.09,200.82c-.11-.09-.22-.16-.33-.24a6.46,6.46,0,0,1-1.64-.6A2.91,2.91,0,0,0,62.09,200.82Z"/><path class="cls-2" d="M68.46,137.93l-.18,0C68.27,138,68.35,138,68.46,137.93Z"/><path class="cls-2" d="M45.41,135.59l.92,0A4,4,0,0,0,45.41,135.59Z"/><path class="cls-2" d="M46.13,189c-.36-.41-.09,0,0,0Z"/><path class="cls-2" d="M45.9,185.89a.28.28,0,0,0,.29,0A.36.36,0,0,1,45.9,185.89Z"/><path class="cls-2" d="M67.94,199.77h0C67.85,199.66,67.87,199.68,67.94,199.77Z"/><path class="cls-2" d="M45.77,188.22a5.23,5.23,0,0,0,.33.62A5.57,5.57,0,0,0,45.77,188.22Z"/><path class="cls-2" d="M45.68,188.43l-.26-.4C45.32,188,45.32,188.1,45.68,188.43Z"/><path class="cls-2" d="M46.62,189.56a6.47,6.47,0,0,1-.51-.71c0,.1.05.15,0,.14Z"/><path class="cls-2" d="M109.85,133.06l-.11,0C109.22,133.21,109.45,133.18,109.85,133.06Z"/><path class="cls-2" d="M105.53,193.48l0,0h.07Z"/><path class="cls-2" d="M107.08,192.52a1.82,1.82,0,0,1-1.51,1l1,.95C106.76,193.82,106.92,193.16,107.08,192.52Z"/><path class="cls-2" d="M145.39,141.65l-.3,1.23c-.71-1.39-.68-2.39-1.07-1.26.7,0,.82,1.15.91,2.3a9.25,9.25,0,0,0,.16,1.6c.09.45.25.76.59.82l-.31.79c0-.23-.06-.27,0-.49-.7,1.5.92,1.21.54,3.23-.2.69-.47,1.15-.56.65,0,.53.08,1.07.08,1.6s-.32.29-.21-.15c-.12.79-.22,1.58-.39,2.37l0,0a8.15,8.15,0,0,1,.29,1.63c-.36.54-.05-.34-.26-.23l-.07,1.38c-.49.42-.5-.75-.19-1.61-1.68.8.07,1.18-1.59,3.44l.25-1.23a2.32,2.32,0,0,0-1,1.07,9.27,9.27,0,0,1-1,1.5c.35-.18,2.17-2.12,2-.68a2.88,2.88,0,0,0-.54,1.64c-.45-.19-.66.55-1,1.42l-.55-.34c-.28,1,0,1.06,0,1.73a1.63,1.63,0,0,1-1.65,1c-1,1.52,1.32-.7.34,1.24a7.55,7.55,0,0,0-1.16,1.76c-.33.61-.59,1.31-1,2.17-.83.74-.2-.38-.58-.18l-.17,1.07c-.15.18-.23,0-.27-.05-.33.77.47.45-.2,1.56.32.73-2.45,1.37-3,3-.4.16-.16-.41-.42-.49a25.14,25.14,0,0,0-1.81,3.36l-1.41.74c1.16-.41.48,1-.19,2.19a10.59,10.59,0,0,0,1.1-.26c-.44.54-.88,1.09-1.35,1.62-.26.08-.24-.22-.15-.64-.07.13-.14.26-.19.36-.72.29-.66-.24-.49-.85l.82-.17c.13-.63.19-1.26-.13-1.47a2.08,2.08,0,0,1-.38.57c0-.17,0-.29-.06-.3s-.16.24-.3.58l-.81-.25.1.29q-1.15.68-2.32,1.3c-1,1.71-1.75,3.57-4.16,5.48.35-.85-.33-.8-.63-1.35,1.05.11,1.79-1.51,3.11-2.3-.69.42-.73.07-.61-.13-.64.68-1.27,1.39-1.94,2-.23-.46-.7,0-1.42.22,1,.56-1.39,1.66-2.21,2.49-.23-.26-.16-.68,1-1.33-1.67.15-1.09,2-2.71,2.2.29-.17.47-.22.5-.43-.53.67-2.36,1.34-2.09.88l.29-.16c-2,1-6.09,3-6.09,3.85a4.32,4.32,0,0,1-.08-1.27c-.84,1.4-1.72,2.79-2.67,4.16.07-.81-1.79-2-.22-3a5.32,5.32,0,0,0-2.14.83c.37,0,1.21.69.76.92a13.6,13.6,0,0,0-2.85-.22c.57,0,.35,1.26-.49,1.48.08-.2-.41-1.06-.14-1.27-.56.58-1.14,1.15-1.73,1.7.46-.34-.18-.94-.72-1.12.27.16-1.77.48-2.3.71l.94,0c-2.37.43-1.94,2.12-4.34,2.57.25-.28.42-1.53-.8-1.45a16.69,16.69,0,0,1-1.39,1.95,6.78,6.78,0,0,1-2.69,2l-.46-.27-1.62.58c.47-.49,1.38-1.29,2.33-2.06s1.93-1.59,2.62-2.09c-.93-.09-.31-.34-1.63-.09-.51-.23.65-.58,1-.65-1,.08-2.06.21-3.09.26.23.65-2.28,1-2.1,1.5q1.66-.53,3.28-1.11c.25.65-1.69,2.18-4,2.28-.59-.21.31-1.23.24-1.45a4.45,4.45,0,0,1-2.27.46l.91-.43c-1.23-.16-2,1-3.46.43-.51,0-1.51-.85-1.6-.45.81.76,1,3.13.44,3.71A16.9,16.9,0,0,1,74.87,201c-.81-.65,1.36-1.37.66-1.92,0,.18-.52.39-.71.45-.52-.2.26-.55-.9-.56-.26.68-2.34-.31-.6.53-1.16.07-1.19-.26-2.52-.43.36.5-1.44,1.3-2.66,1.22.1-.15-.11-.43-.21-.56a38.85,38.85,0,0,1-5.49-2.13c-.14-.21-1-.84-.48-.92a2.79,2.79,0,0,1-1.29-.24c-.9-1.11,1.38.59.8-.49-.23.3-1.8-.24-2.74-.53-.08.74,1.94,1.13,2.88,1.35-.17.38-.73.59-1.55.6a7.16,7.16,0,0,1-3-.66c-1.75-.85-.41-.9-.76-1a13.46,13.46,0,0,0-1.75-1,6.82,6.82,0,0,0-1.24-.39A3.39,3.39,0,0,1,51,192.66c-.51-1.2.69-.81.76-1.28,1.26.88,1.49,1.85,2.36,2.45-.28-.33-.58-.65-.85-1A4.46,4.46,0,0,1,55,194a24.8,24.8,0,0,0-2.62-2.55l-.94-.88c-.31-.31-.59-.65-.87-1a14,14,0,0,1-1.42-1.86c-.43-.25-1.09-.78-1-.34l.59.62c.17.9-1.47-.89-.95.1a7.89,7.89,0,0,1-2.92-3l.33-.6c-.13.13.31,1.09.73,1.36-.61-.42-.77-2.51-1.82-2.72.07.41.17.8.28,1.2a9.53,9.53,0,0,1-2.82-3.11c-.18.88.23.25.17,1.52.14-.62.63.2,1.08,1s.94,1.41.9.56c-.06,1.35.77,1.74,1,3.32.13-.16,0-.63.7.42a1.33,1.33,0,0,1,.31.11l0,.08,0-.07c.06,0,.07,0,0,0a1.48,1.48,0,0,1-.16-.69c.77.2,2,1.78,2.61,2.1.43.61-.38-.07-.27.37l.95.5c-.27.37.81,2-.59.85l1.08,1.19a7.25,7.25,0,0,0,2.15,2.19c.52.58,1.83.8,1.08.68.73.44,1.45.89,2.18,1.31l0,.1a24.5,24.5,0,0,0,3.43,1.8,16.13,16.13,0,0,1,3.61,2.06,18.77,18.77,0,0,1,3,.91l.15.45c1.07.19,3.07,1.19,3.62.86.47.63,1.77.92,3.18,1s2.9.07,3.83.2l.09-.5a18.24,18.24,0,0,0,4.09-.28l-.11-.44c1.33-.39,3.48.17,5.6-.1-.13.18-.67.19-1.06.13,2.66.77,5.22-1.36,7.58-1.06a2.37,2.37,0,0,1,1.37-.25l-.14,0,.23,0c.26,0,.54.05.83.06a3.38,3.38,0,0,0-.7-.09A12.83,12.83,0,0,0,95,201l.38.41.15,0c.67,0,.45-.34,0-.61a3.89,3.89,0,0,0,.77-.49c.69.62,1.6-.65,2.5-.06a5.93,5.93,0,0,1,1.67-.9c.74-.36,1.44-.79,1.47-1.24.05.1.25.09-.08.2a4,4,0,0,0,2-.71l.49.48c.41-.44.82-.86,1.21-1.31,1,0,1.48.06.75.85,1.9-1.5,1.66-.94,3.19-2.36l.07.4c.65-.28,1.44-1.24,2-1.11a5.2,5.2,0,0,0,1.9-.52,29.81,29.81,0,0,0,2.74-1.32c2-1,4.21-2.33,6.1-3.15-1.3-.55,1.87-.59,1.5-1.44.35.09.9-.1.5.47,1.55-1.4,2.82-1.46,3.5-2.94.36.07-.1.59.16.59.1-.15.38-.6.65-.6s-.1.37-.29.67c1.67-1.35,1.27-2.18.89-2.88a2.12,2.12,0,0,0,1.66-1.68c.45,0,1.1-.26.18.68.6-.42,3.58-2.8,3.17-3.32.28-.05.77-.69.84-.89a23.74,23.74,0,0,0,2.33-2.52l-.37.27c-.16-1,.75-1.12,1.5-2.21l0,.08a4.75,4.75,0,0,0,1.42-1.61,5.72,5.72,0,0,1,1.4-1.61l-.49-.14c-.7-.79,2-1.83,2.47-3.57l-.55.4c.17-1,2.5-1.63,3.06-2.46.17-.15,0,.37-.1.66,1.66-2-.41-.57.25-2.33.45-.18.61.77,1.18-.38.52-.51.38-3.83,1.42-5.31-.36.3-.72.58-.66-.31.3-1.27,1.85-3.29,1.24-4.64.1-.15.18-.21.25-.2,0-.53,0-1.36,0-2.15a4.83,4.83,0,0,0-.32-1.84,1.45,1.45,0,0,0,.67-1.35,8.54,8.54,0,0,0-.15-2.14c-.21-1.46-.59-2.77.19-2.82-.09-1.05-.29-2.09-.46-3.13l.17.06a4.89,4.89,0,0,0-1.34-3.23c0-.48.21-.19.29-.17-.51-2.92-.72-3.24-2.38-5.18l.34-.44a1.21,1.21,0,0,1-.24-.4l-.32-.83a5.5,5.5,0,0,0-1.7-2.45,4,4,0,0,0-2.47-.74,5.29,5.29,0,0,0-1.35.21c-.22.07-.43.14-.64.22a4,4,0,0,0-.54.25c0-.07,0-.16.3-.33a9.53,9.53,0,0,1-1.21.52,12.16,12.16,0,0,1-1.19.32,21.36,21.36,0,0,1-2.42.38c-1.54.24-2.83.42-3.19,1.43-.62.3-1.26.53-1.89.8,2.6-.29-.25.84.87,1-1,.28-2.73-.09-1.49-.4l.21.06c.32-1-3.27.13-3.28-.53-5.09.64-10.15.25-15,.28l.57.72-1.7,0c-.45-.17-.61-.57.61-.55-.64-.41-2,.37-2.07.53-2.39-.27.92-.86.19-.87l-1,.06.22.08a4,4,0,0,1-2.33.6c-.93-.13-.48-.44-.85-.47,0-.05-.12-.07-.56,0l-2.16,0,.88.56c-1,.3-2,0-1,.64-1.48-1-8.09-.1-9-.28a14.35,14.35,0,0,1-4.28.75c.42.08.73.7-.69.76.37-1.4-2.64-.28-3.9-1.09,1.09.49-4,.69-2.26,1.38-1.18.05-.14-.49-1.07-.68-2.71.91-6.17.57-9.55,1.27,0,.18.59.36-.11.73l-1.93-.6c-.66.18-.47,1.1-1.79.67.19.12.49.3,0,.43a100,100,0,0,0-10.18,1.11,29.07,29.07,0,0,1-10.23-.15c.91.33.31.37-.39.39.45.07,0,.43.08.67-.95-.19-1.88-.47-2.82-.7-.54.68-3-.09-3.35.51l.9-.05c-1.25.66,1.58,1.78,1.38,2.7.7-.41,1.59-.07,2.61.22a4.13,4.13,0,0,0,3.27-.15c.5.19-.42.32-.15.53a3.49,3.49,0,0,1,2.54-.41l-.14.11c3.59-.28,5.15,0,9.2-.19l-.35-.44a4.63,4.63,0,0,1,1.48.15c.9-.83-2.41.25-1.61-.64.62.42,2.13.23,3.6.07s2.88-.34,3.34.15c1.31-.18-.46-.48.85-.67l.39.24.28-.43c.87-.06,1.35.24,1.42.48a4.66,4.66,0,0,0-.8.21c1.17.18,3.12-.59,3.51-.53H70.7c3.53-.82,7.9-1.11,11.24-2.17l-.29-.19c2.56-.77,2.13,0,5-.59l-.1.07a5.32,5.32,0,0,1,2.09-.54c-.7.33,1.41.37.49.75,2.78-.73,1.36-.48,3.17-1.47l.46.34a3.38,3.38,0,0,1,2.09-.75c-1.16.38,1,.51-.34,1,3,.64,4.45-1,5.87.13,1.37-1.07-2.64-.5-1.86-.73-.67-.31,1.12-.82,2.08-.73s1.68,1.27,4.12,1.22c-.24,0-.26.08-.5.07.92.25,1.79-.38,2.92,0,.62-.63,1.46,0,1.64-.77l-2.25.2c1.27-.22,2.46-1.16,4.57-.73a4.11,4.11,0,0,1-1.21.5c.62.23,1.18-.16,1.83.06-.17.8-2.74.21-4.1.82.66.33,2.58-.6,1.9.26,1-1.1,2.43.11,4.09-.76l-.1.48a4.67,4.67,0,0,1,1.3-.32l-.87.64c1.35-.56,2.63.4,3.94,0-2.74.12-.64-.55-1.8-.85,3.34-.77,2,1.2,5.78.73-.51.1-2-.15-1.16-.43a7.56,7.56,0,0,1,2.16.38c2.52-.33-.43-.45.62-.84.91.49,1.22-.35,2.29-.64l.06.48c2.91-.07.63-1.08,3.24-1.07-.33.29-.66.55-1,.82.44-.11.88-.24,1.32-.37l-.19.59a7.92,7.92,0,0,1,3.34-.75c-.4-.26,0-.9,1.26-1.18.92.08-.37.59,1.38.07a1.27,1.27,0,0,1-1.56.61c0,.17-.33.38-.38.55a8,8,0,0,0,3-.65,2.71,2.71,0,0,1-.73.08c.81-.46,1.62-.85,2.39-1.36.45,0,.18.29-.1.52.5-.22.79-.54,1.53-.82-.07.43.11.8-.93,1.33.75-.4,1.61-.81,2.26-1.19a.55.55,0,0,1,.44.5c.11.11.26-.19.59-.24s.49.1.51.49a1.21,1.21,0,0,1,.44.46c.6,1.45.58,2.88,1.64,4.48l-.43,1.19c.5,1.36.52-1.6,1.35.7.54,1.66-.47.75-.55,1.37a6.72,6.72,0,0,1,.84,1.57,3.48,3.48,0,0,1,.11,2.24A8.76,8.76,0,0,1,145.39,141.65Zm-2.26,17.9c.05-.36,0-1.14.33-1.28C143.84,158.82,143.51,159,143.13,159.55Zm-16.34,23a1.54,1.54,0,0,1,1-.66A2.77,2.77,0,0,1,126.79,182.5ZM50.47,193.07h0C51,193.82,50.86,193.55,50.47,193.07Zm-1.17-1.42c-.17-.09-.21,0-.21.07.18,0,.44.32.77.65C49.85,192.2,49.74,192,49.3,191.65Zm55-61.78.34.12C103.92,130.15,104.13,130,104.34,129.88Z"/><path class="cls-2" d="M128.87,179.9a.44.44,0,0,1,.29.09C129.21,179.83,129.15,179.76,128.87,179.9Z"/><path class="cls-2" d="M142.19,131.1l0-.05h-.09A.22.22,0,0,1,142.19,131.1Z"/><path class="cls-2" d="M74.88,198.84a1.7,1.7,0,0,1,.65.28C75.56,199,75.4,198.9,74.88,198.84Z"/><path class="cls-2" d="M42.64,184.58l.77.9a2.59,2.59,0,0,1-.47-1C42.86,184.61,42.85,184.88,42.64,184.58Z"/><path class="cls-2" d="M40.6,174.48c-.13-.12-.15-.31-.26-.43l-.19.13C40.44,174.81,40.82,175.17,40.6,174.48Z"/><path class="cls-2" d="M43.44,182.81c.3-.29-.19-.82-.66-1.46l.07.12C42.24,181.55,42.85,182.19,43.44,182.81Z"/><path class="cls-2" d="M42.67,181.2a3.13,3.13,0,0,1-.38-.63C42.06,180.6,42.39,180.86,42.67,181.2Z"/><path class="cls-2" d="M47.52,190.14c-.19-.35-.56.16-.58-.11C46.25,190,49.18,191.53,47.52,190.14Z"/><polygon class="cls-2" points="44.25 181.57 43.97 182.07 44.54 182.23 44.25 181.57"/><path class="cls-2" d="M47.44,186.85l-.67-1.06c-.06.07-.19,0-.33-.17C46.87,186.26,47.35,187,47.44,186.85Z"/><path class="cls-2" d="M46.44,185.61a3.18,3.18,0,0,0-.64-.78A7.19,7.19,0,0,0,46.44,185.61Z"/><polygon class="cls-2" points="45.26 182.94 45.38 183.3 45.85 184.04 45.26 182.94"/><path class="cls-2" d="M57.29,196l1.24.61c.2-.08-.06-.36-.52-.57S57.2,195.72,57.29,196Z"/><path class="cls-2" d="M54.75,192.51a1.21,1.21,0,0,1,.23.66l.41-.47Z"/><path class="cls-2" d="M58,194.61c.21-.07,1.85.58.44-.26C58.22,194.42,57,193.85,58,194.61Z"/><polygon class="cls-2" points="76.86 200.63 76.51 200.63 76.53 201.65 76.86 200.63"/><path class="cls-2" d="M94.1,196.27c-1.57.1-.23.69-1.67.7-.31.31,1.18,0,.86.28C94.16,196.8,94.68,196.84,94.1,196.27Z"/><path class="cls-2" d="M93.29,197.25a4.65,4.65,0,0,0-.44.26A2,2,0,0,0,93.29,197.25Z"/><polygon class="cls-2" points="41.74 134.93 40.76 134.66 41.38 135.04 41.74 134.93"/><path class="cls-2" d="M39.77,135.56l-.18-.66-.65.55C39.16,135.43,39.61,135.4,39.77,135.56Z"/><path class="cls-2" d="M140.87,161.5l.11.13c.22-.06.32-.26.54-.66Z"/><polygon class="cls-2" points="144.83 149.22 144.8 149.45 145.42 149.09 144.83 149.22"/><path class="cls-2" d="M143.65,138.59c.05.43.28.9.33,1.33C143.71,139,144.35,138.33,143.65,138.59Z"/><path class="cls-4" d="M145.78,107.26c1.05-20.24,10.45-39.08,21-56.37,7.5-12.26,16.05-24.44,28.27-32s29-9.45,40.63-1.07c8.17,5.86,12.56,15.53,16.59,24.74l12.09-5.9a454.08,454.08,0,0,0,10.23,73.46c-18.39-12.77-39.8-24.74-61.93-21.3a10.94,10.94,0,0,1,3.57-5.33,29.31,29.31,0,0,0-18.85-15.26c-11.88-3-24.69,2-33.8,10.16s-15.11,19.23-20.35,30.31"/><path class="cls-2" d="M145.7,109.27c-.31.56.17.53.2.65C146.27,108.92,145.59,109.25,145.7,109.27Z"/><polygon class="cls-2" points="149.61 99.44 149.67 99.69 150.06 98.13 149.61 99.44"/><path class="cls-2" d="M154.71,91.07c-1.12.36-1.86,3-3,4.39l-.29.17.09,1A33.24,33.24,0,0,1,154.71,91.07Z"/><path class="cls-2" d="M159,87.82c-.41.08.49-1-.8.88a1.46,1.46,0,0,1,.19-.13C158.5,88.41,158.68,88.19,159,87.82Z"/><path class="cls-2" d="M158.38,88.57c-.59.81.58-.38,0,0Z"/><path class="cls-2" d="M161.2,84.9c-.24.37-.45.78-.67,1.16.3-.11,1.09-1,.89-.56C162.22,84.42,161.92,84.51,161.2,84.9Z"/><path class="cls-2" d="M161.66,83.62l-.39.58C161.4,84.16,161.54,84,161.66,83.62Z"/><path class="cls-2" d="M160.47,85.44c.25-.42.53-.83.8-1.24-.21.06-.4-.07-.39.55C160.81,84.52,160.76,84.87,160.47,85.44Z"/><path class="cls-2" d="M159.86,86c-.6.46-1.29,1.16-.63,0C157.71,88,158.33,88,159.86,86Z"/><path class="cls-2" d="M154.38,90.24l-.76.73-.29.88C153.48,91.4,154.6,90.31,154.38,90.24Z"/><path class="cls-2" d="M167.27,79.51c0-.17-.59,0-.79-.11l-.62.76C166.31,79.91,167.08,79.38,167.27,79.51Z"/><path class="cls-2" d="M166.49,79.4q.45-.58,1-1.11C166.39,79,166.33,79.33,166.49,79.4Z"/><path class="cls-2" d="M161.24,82.91c-.41.73-.84,1.43-1.21,2.18.48-.86,1-1.68,1.53-2.53C161.44,82.67,161.34,82.79,161.24,82.91Z"/><polygon class="cls-2" points="171.69 76.37 171.19 77.09 172.12 75.88 171.69 76.37"/><path class="cls-2" d="M174.77,74.53c-.4.52.95.09.47.52a14.59,14.59,0,0,0,2.06-1.54A8.76,8.76,0,0,1,174.77,74.53Z"/><path class="cls-2" d="M178.33,72.71a11.52,11.52,0,0,0-1,.79A6.06,6.06,0,0,0,178.33,72.71Z"/><path class="cls-2" d="M169.47,76.88a1.77,1.77,0,0,0,1.17-.29l-.7,0Z"/><path class="cls-2" d="M169.91,76.56h0c.51-.35.88-.56,1-.66C170.84,76,170.51,76.16,169.91,76.56Z"/><path class="cls-2" d="M169.35,77l.12-.08C169.4,76.87,169.36,76.88,169.35,77Z"/><path class="cls-2" d="M164.26,80.44c.45-.79,1.68-2.13.1-1.27C164.09,79.82,165,79.28,164.26,80.44Z"/><path class="cls-2" d="M168.45,76.93l-1.29.87c.09.07.42,0,.15.38Z"/><polygon class="cls-2" points="169 76.38 168.45 76.93 168.95 76.63 169 76.38"/><path class="cls-2" d="M175.8,73.38a7.46,7.46,0,0,1,1.92-1.09,15.4,15.4,0,0,0-2.47,1C175.19,73.42,175,73.8,175.8,73.38Z"/><path class="cls-2" d="M172.86,74.77l.12-.09C172.88,74.69,172.81,74.72,172.86,74.77Z"/><path class="cls-2" d="M185.38,70.13l-.14-.06,0,.08Z"/><path class="cls-2" d="M175.08,73.24a2.53,2.53,0,0,0-1.21.78,11.39,11.39,0,0,1,1.38-.77C175.27,73.17,175.26,73.13,175.08,73.24Z"/><path class="cls-2" d="M180.34,71.78c-.35,0-.73.09-1.14.16C179.56,72,180.26,71.92,180.34,71.78Z"/><path class="cls-2" d="M173.23,74.67l-.08.06C173.39,74.71,173.34,74.69,173.23,74.67Z"/><path class="cls-2" d="M173.23,74.67a5.51,5.51,0,0,0,.64-.65,10.43,10.43,0,0,0-.89.66A1,1,0,0,1,173.23,74.67Z"/><path class="cls-2" d="M187.53,67.1c0,.2-.52.44-1.17.59a6.62,6.62,0,0,1-2.31.22c-1.46.64-.17,1.62,1.19,2.17,0-.17,0-.36,1.46-.78-.54-.18-3.44,0-2.22-.54,2-.53,1.7-.14,2.71,0-.45-.21.18-.44.88-.72s1.47-.49,1.23-.86a16.54,16.54,0,0,0-1.85.36C187.4,67.4,188.06,67.16,187.53,67.1Z"/><path class="cls-2" d="M182.44,70.61c-.2.05-.39.14-.58.21a7,7,0,0,1,2.19,0c.95-.4,1.14-.54,1.19-.7-1,.11-2,.37-3,.56Z"/><path class="cls-2" d="M179.2,71.66a5.33,5.33,0,0,1,.83-.86c.26-.24.36-.44-.16-.53-1.75.66-1.12.77-2.09,1.34,2.76-1.12-.72.5,1.38,0-.52.27-1,.45-1.45.67a10.7,10.7,0,0,1,1.49-.35h-.08c-.14,0-.19,0,0,0l.05,0a.41.41,0,0,1,.07-.2c.83-.2.16.06-.07.2,0,0,0,0,0,.07h0c.89-.43,1.8-.77,2.72-1.12A13.65,13.65,0,0,0,179.2,71.66Z"/><path class="cls-2" d="M165,77.4c.1,0,.11,0,.14,0C165.26,77.24,165.29,77.16,165,77.4Z"/><path class="cls-2" d="M166.16,76.8a2.57,2.57,0,0,1-.77.86c-.56.31-.13-.16-.25-.25-.27.38-1,1.24.21.5l.13-.19a6.08,6.08,0,0,1,2.5-1A3.86,3.86,0,0,0,166.16,76.8Z"/><path class="cls-2" d="M172.57,73.52l1.06-.71,1.09-.65-1.34.24.16.17C172.23,73.19,172.64,73.28,172.57,73.52Z"/><path class="cls-2" d="M185.69,70.3l-.24.5c.42-.27.84-.59,1.28-.84C186.37,70,186,70.19,185.69,70.3Z"/><polygon class="cls-2" points="188.79 69.92 188.69 70.32 189.5 70.06 188.79 69.92"/><path class="cls-2" d="M257.13,42.85,257,43l-.26.16-.54.33A7.24,7.24,0,0,0,257.13,42.85Z"/><path class="cls-2" d="M261,41l.06-.25C260.93,40.92,260.9,41,261,41Z"/><path class="cls-2" d="M252.74,99.64c.8.83,1.61,1.9,1.7,1.44l-.09-.54A6.27,6.27,0,0,1,252.74,99.64Z"/><path class="cls-2" d="M268.57,78.12l-.08.34.53.68Z"/><path class="cls-2" d="M266.68,77.6l.07-1.5A10.21,10.21,0,0,0,266.68,77.6Z"/><path class="cls-2" d="M236.92,22.5c-.29-.09-.59-.16-.89-.22C237,23.11,236.7,22.59,236.92,22.5Z"/><path class="cls-2" d="M213.1,83.32a3.65,3.65,0,0,0-.5.27l-.08.06-.2.24c-.14.16-.27.34-.39.51a6.91,6.91,0,0,1,.72-.66l.31-.12C213.14,83.51,213.25,83.41,213.1,83.32Z"/><path class="cls-2" d="M257.07,37.75c-.39.28-.53.44-.47.52C257,38,257.2,37.8,257.07,37.75Z"/><path class="cls-2" d="M210.38,87.46l.32-.55a8.71,8.71,0,0,1,1.22-2.52A5.22,5.22,0,0,0,210.38,87.46Z"/><path class="cls-2" d="M159.49,69c-.05.06-.1.14-.15.2S159.43,69.18,159.49,69Z"/><path class="cls-2" d="M145,97.7c0-.32.12-.84.2-1.33A7.16,7.16,0,0,0,145,97.7Z"/><path class="cls-2" d="M200.83,72.28c-.61-.23-.11,0,0,0Z"/><path class="cls-2" d="M198.38,69.54c.16,0,.28,0,.33-.13A.48.48,0,0,1,198.38,69.54Z"/><path class="cls-2" d="M219.31,88.21h.06C219.16,88.13,219.2,88.14,219.31,88.21Z"/><path class="cls-2" d="M200,71.72a7.42,7.42,0,0,0,.72.43A7.9,7.9,0,0,0,200,71.72Z"/><path class="cls-2" d="M200,72l-.51-.25C199.44,71.75,199.49,71.82,200,72Z"/><path class="cls-2" d="M201.66,72.65a10.49,10.49,0,0,1-.93-.49c.11.08.14.13.11.12Z"/><path class="cls-2" d="M192.67,22.1l-.15.06C192.05,22.72,192.29,22.51,192.67,22.1Z"/><path class="cls-2" d="M269.39,104.17h0l0,0Z"/><path class="cls-2" d="M270.14,104.29c.05.67-.39.3-.74-.07a17.56,17.56,0,0,0,.93,2.1A3.78,3.78,0,0,0,270.14,104.29Z"/><path class="cls-2" d="M246.28,35.44l.43,1.76c-1.5-1.64-2-3.06-1.75-1.37.66-.2,1.45,1.31,2.21,2.86.39.83.66,1.34,1.34,2.65.57,1,1,1.64,1.3,1.42l.61,2.09c-.22-.54-.31-.54-.53-1.08a7.08,7.08,0,0,0,1,2.51c.64-.46,1.16-1,1.83-1.52a11.46,11.46,0,0,1,2.82-1.67l1-.38.34-.11.21,0c.24,0,.28.05,0,.28l1.94-1.32c.62-.27.57,0,0,.28l.78-.41.39-.21.17-.1.68-.39v.05a7.7,7.7,0,0,1,1.25-1.37c.35,0-.32.32-.29.49l.59-.47.32-.25.08-.06,0,0,0,.09c-.15.49-.31.59-.44.55h0l-.06.05-.12.1-.24.18a2,2,0,0,1-.43.24c0,.37,0,.55,0,.57s.07,0,.12-.06.14-.15.16-.12.17,0,.21.19a2,2,0,0,1-.15,1,3.49,3.49,0,0,0-.2-.42c-.35.57-.46.73-.54.89a.87.87,0,0,1-.12.19l0,0h0l0,.17c0,.25-.05.5-.09.77.05-.13.14-.46.24-.86,0-.14.06-.1.09-.12l.11-.06a1.82,1.82,0,0,0,.22-.18c.3-.26.59-.7.79-.31a1.14,1.14,0,0,0,0,.46,7.33,7.33,0,0,0,.3,1.42c-.48,0-.29,1.16-.15,2.57l-.65,0c.31,1.51.62,1.36,1,2.23a2.81,2.81,0,0,1-.77,2.53c.15,2.72.62-1.94,1,1.26a22.66,22.66,0,0,0,1,6.49c-.06,1.6-.42-.23-.54.35l.66,1.34c0,.34-.14.25-.23.2.33,1.15.65,0,1,1.85.75.41-.58,3.91.5,6.09-.11.59-.42-.22-.65,0a32,32,0,0,0,1.78,5.1l-.1,2.24c.24-1.67,1.1.3,1.82,2,.15-.6.28-1.12.33-1.45l.77,2.8c-.05.36-.31.11-.65-.32.08.19.16.36.23.5-.08,1.05-.52.58-1-.09l.23-1.09c-.49-.65-1-1.25-1.36-1a4,4,0,0,1,.31.91c-.13-.17-.24-.27-.29-.18s.13.39.37.83l-.6.76.3.12.14,3.81c1.15,2.56,2.57,4.71,3.62,8.87-.71-1-.88-.07-1.5,0,.44-1.27-.86-3.23-1.1-5.45.12,1.16-.2,1-.36.68l1.28,3.81c-.52,0-.23.9-.24,2,.85-1,1.19,2.79,1.81,4.32-.31.16-.73-.15-1-2.11-.34,2.29,1.69,2.54,1.47,4.76-.1-.47-.1-.74-.31-.89a5.19,5.19,0,0,1,.34,1c0,.18.09.44.12.57s0,.27.05.39c0,.5,0,.77-.23.55l-.06-.27a27.54,27.54,0,0,0,1.37,5.26c-.34-.07-.54,0-.36.44l-1.05-2.13c.4,1.39-.37,2-2.33,1.86.24-.28-.12-1.27-.12-2s.17-1.22.64-1.16a2.36,2.36,0,0,0-1.35-.84,2.13,2.13,0,0,1,.14.77c0,.32,0,.6-.27.47-.27-.41-.32-.6-.5-.82a5.9,5.9,0,0,0-.44-.5c-.29-.29-.63-.6-1.47-1.54.58.56-.75,1-1.79.39.25,0,.5-1,1-.89l-3.22-.61c.76.22.6-.75.17-1.38.18.34-2.32-1.33-3.1-1.64l1,.87c-3-1.87-3.78-.25-6.78-1.88.47,0,1.57-.83,0-1.72-1,.17-4.39.94-7.3.24l-.4-.53c-.75-.19-1.52-.31-2.27-.47a22.76,22.76,0,0,1,3.94-.33,28.52,28.52,0,0,1,4.5.2c-1.08-.79-.15-.53-2-1.3-.52-.56,1.19,0,1.71.24-1.35-.73-2.77-1.35-4.16-2,0,.66-3.55-.64-3.58,0l2.46.54,2.44.65c0,.35-.89.5-2.09.41a14,14,0,0,1-4.25-1c-.68-.54,1-.92,1-1.15a12.09,12.09,0,0,1-3.31-.81l1.43.07c-1.68-.78-3.07-.09-5-1.21-.72-.23-2-1.4-2.21-1,1,1.05.69,3.41-.2,3.78-.21-.17-3.57-1.44-4.35-2-.56-.36-.05-.69.48-.93s1.09-.49.61-.84c-.08.18-.78.26-1.08.3-.76-.25.41-.52-1.32-.65-.37.64-3.47-.47-.88.48a6.72,6.72,0,0,1-1.75-.2,12.24,12.24,0,0,0-2-.21c.3.23-.16.59-.89.9a8.85,8.85,0,0,1-1.24.41,9.6,9.6,0,0,1-1.3.32c.09-.18-.28-.39-.46-.49-2.72,0-4.42.06-6.67.21l.45.52a13.76,13.76,0,0,1,.61-1.49c.25-.21,1.15-1.3,1.09-.63.06-.2.09-.42.18-.67a2.62,2.62,0,0,1,.19-.42,3.73,3.73,0,0,1,.45-.59c1.11-.68.66-.23.14.36-.11.15-.24.32-.32.44a1.12,1.12,0,0,0-.12.28c0,.15.06.19.4,0-.11-.07,0-.48.38-.94a15.43,15.43,0,0,1,1.27-1.49l0-.18a2.53,2.53,0,0,0-.14-.22L217,83l-.53-.76c-.09.11-.07.32,0,.58a3.78,3.78,0,0,0,.19.44l.13.25a.07.07,0,0,1,0,.12l-.07.11A9.06,9.06,0,0,0,215.55,85a5.9,5.9,0,0,0-.47.74c-.11.21-.19.41-.27.58-.24-.16-.35-.56-.25-1.15a5.44,5.44,0,0,1,.62-1.75l0-.08s0,0,0,0l0-.05-.19-.21-.37-.42-.7-.81c-.15-.19-.22-.31-.33-.47a2.77,2.77,0,0,1-.23-.4c-.09-.21-.08-.31,0-.35s.39,0,.21-.13a7.34,7.34,0,0,0-3.14-2.94,9.17,9.17,0,0,1-1.25-.75,11.59,11.59,0,0,1-1.56-1.53c-.87-1.37.62-.88.6-1.4,1.77,1.19,2.19,2.4,3.16,3.4-.34-.47-.66-1-1-1.43a6.31,6.31,0,0,1,2.05,2A13.84,13.84,0,0,0,209,74a49.24,49.24,0,0,0-5.7-4c-.7-.13-1.82-.45-1.41,0l1.11.44c.78.85-2.25-.4-1,.41a42.18,42.18,0,0,1-5.29-1.27l-.26-.68c0,.09.33.25.74.39a3.49,3.49,0,0,0,1.19.29,9,9,0,0,1-2-.73,6.5,6.5,0,0,0-1.19-.36,1.59,1.59,0,0,0-1,.16,13.09,13.09,0,0,1,1.43.66c-.77,0-1.66.15-2.55.2a12.43,12.43,0,0,1-2.75.06c.83.59.44-.06,1.71.7-.54-.45.64-.45,1.72-.26s2.07.35,1.25-.3a4.25,4.25,0,0,0,1.73.95,5.59,5.59,0,0,1,1.93,1.07c0-.21-.45-.57.95,0a1.56,1.56,0,0,1,.37,0l.09.05-.07-.05c.07,0,.08,0,0,0a2.55,2.55,0,0,1-.63-.57c.89-.2,3.2.81,4,1.07.78.53-.46,0-.11.45.43.09.85.21,1.28.33-.1.44,1.65,2-.29,1,.55.33,1.06.73,1.59,1.09a16.15,16.15,0,0,0,2.68,2.47c.59.68,1.95,1.31,1.15,1a26.42,26.42,0,0,1,2.15,2.15l-.07.09c.23.3.44.63.67.94l.34.44.16.2c.11.14.24.28.36.43l.18.24c0,.08.18.18.07.23l-.36.4-.19.21-.11.13-.24.3a29.7,29.7,0,0,0-1.88,2.68c-.12.39-.22.79-.32,1.22L209.46,92l3.62-.74a17.24,17.24,0,0,1,2.89-.35l.37.35a10.6,10.6,0,0,1,2.58,0,4.34,4.34,0,0,0,2-.17c.72.56,2.32.68,4,.73a30.56,30.56,0,0,1,4.73.52l.18-.48c.8.17,1.6.29,2.45.39l2.76.43v-.46a6.9,6.9,0,0,1,1.49.27c.53.17,1.1.41,1.69.65,1.19.49,2.47,1.06,3.8,1.56-.24.09-.89-.2-1.33-.47a14.47,14.47,0,0,0,4.82,2c.84.24,1.69.47,2.47.76A8.24,8.24,0,0,1,250.13,98a4.18,4.18,0,0,1,1.68.8l-.18-.06.28.14c.27.23.54.47.84.7a5.62,5.62,0,0,0-.69-.63,23,23,0,0,0,2.19.94l.11.6.19.08c.68.55.72.12.48-.41a10.06,10.06,0,0,0,1.17.3c.24,1,2.16.91,2.59,2.1.72-.07,4,2,4.83,1.53,0,.11.16.3-.25,0a8.21,8.21,0,0,0,2.46,1.5l0,.74c1.07.34,2,.63,2.75.81,1.36,1.36,2.29,2.24.66,1.72a36.36,36.36,0,0,1,3.28,1.6,8.81,8.81,0,0,0,2.27,1l.34.71a8.12,8.12,0,0,0,1.37.69c-.31-1-.65-2.05-.46-2.12.23-.71-.58-4.52-1.46-8.85l-.32-1.58L274,99.19l-.42-2.39c-.26-1.59-.45-3.15-.53-4.54-1,1.26.05-2.62-.87-2.68.22-.37.24-1.15.63-.31-.76-2.73-.28-4.24-1.35-6,.22-.36.5.53.61.22-.1-.21-.38-.84-.27-1.16s.29.37.49.79c-.5-2.83-1.37-3-2.2-3.08a4,4,0,0,0-.68-3.18c.19-.54.33-1.42.68.34-.12-1-.49-6.15-1.12-6.17a4,4,0,0,0-.25-1.66c-.25-2.25-.21-2.45-.55-4.65l0,.62c-.88-.78-.39-1.82-.68-3.59l.08,0c.09-4.14-.46-1.74-.25-5.83l-.45.27c-1.08-.28.26-3.64-.35-5.94l-.2.87c-.47-1.25,1.1-3.7,1.12-5,.07-.29.18.43.28.82.34-3.4-.66-.39-1-2.88.3-.49.9.53.84-1.16a1.36,1.36,0,0,0,0-.46l-.15-1-.51-3c-.18-1.07-.35-2.15-.45-3.22-.05-.54-.08-1.08-.09-1.64s-.22-.18-.41-.14a5.88,5.88,0,0,1-.57.17c.56,0,.92.13-.72,1.15a41.27,41.27,0,0,1-4.23,1.67c-.41.16-.82.32-1.23.49l-.6.27-.48.23a3.42,3.42,0,0,0-1.16.91c-.24,0-.34,0-.38,0-.29.2-.67.44-1.09.7l-.32.2-.2.14-.38.28a9,9,0,0,0-1.44,1.25.55.55,0,0,0-.11-.32,2.88,2.88,0,0,0-.33-1.4,6.66,6.66,0,0,0-.37-.61l-.11-.16-.05-.08-.09-.14-.35-.59c-.92-1.55-1.72-2.87-1.09-3.16-.66-1.27-1.33-2.55-2.05-3.8l.19,0a8.74,8.74,0,0,0-3-3.74c-.26-.6.11-.28.21-.28a19,19,0,0,0-2.34-3.51,16.19,16.19,0,0,0-2.94-2.38l.1-.6a5,5,0,0,1-1-1c-.46-.49-1-1.12-1.73-1.79l-1.13-1c-.4-.33-.85-.62-1.3-.93a15.05,15.05,0,0,0-1.39-.85c-.49-.23-1-.43-1.48-.6.06,0,.18-.08.51,0-2.17-.88-4.66-2.09-7-2.9s-4.4-1-5.3-.22c-1,.1-2,.17-3,.29,3.81.32-.59.74,1,1.12-1.45,0-3.82-.51-2-.66l.29.09c.34-.47-.85-.56-2.12-.54s-2.6.16-2.58-.15a54.54,54.54,0,0,0-10.94,2.54,42,42,0,0,0-9.77,4.86l1.09.16c-.7.42-1.38.88-2,1.36-.62.24-1,0,.41-1a4.07,4.07,0,0,0-2.11,2.19c-2.87,1.91.52-1.51-.31-.87l-1.1.94.31-.14A9.32,9.32,0,0,1,186,23.71c-1.1.77-.81.12-1.22.46,0,0-.18.06-.6.54-.78.69-1.52,1.4-2.25,2.13l1.28-.48c-.75,1.17-2,2-.58,1.49-1.1.38-3.1,2.43-4.87,4.55s-3.28,4.29-3.77,4.72a30.69,30.69,0,0,1-3.19,5.17c.42-.41,1.15-.33,0,1.27-.72-1.35-2.48,2.72-4.13,3.57,1.29-.88-2.83,4.89-.88,3.44-.95,1.36-.48-.18-1.4.74-1.59,3.63-4.73,7.3-6.87,11.72.12.15.74-.44.48.6l-2,1.89c-.37.9.49,1.24-.82,2.56.24-.16.6-.39.37.21a68.5,68.5,0,0,0-5.9,13.36c-1.6,4.67-3,9.4-4.73,14.09.62-1.24.43-.37.28.64.19-.64.42.1.68,0-.44,1.31-.95,2.61-1.32,3.95a5.23,5.23,0,0,1,0,2.57c-.12,1.06-.16,2.08.13,2.32v-1.3c.3.9.77.33,1.26-.4s1.12-1.61,1.58-1.43c-.3-1,.14-2.18.67-3.49a12.47,12.47,0,0,0,.64-2.08,6,6,0,0,0,.11-2.31c.34-.62.18.63.47.33a5.28,5.28,0,0,1,.51-3.42l0,.22c1.18-4.74,2.22-6.63,4.44-11.64l-.59.21a6.88,6.88,0,0,1,1-1.72c-.06-.76-.41,0-.74.78s-.66,1.58-.81.85c.71-.57,1.52-2.49,2.33-4.34s1.69-3.61,2.42-3.85c.8-1.63-.73.24.07-1.39l.48-.3-.14-.58c.57-1.05,1.19-1.42,1.43-1.34a7,7,0,0,0-.43,1.05c1-1.22,1.87-3.94,2.24-4.35-.34.48-.66,1-1,1.46,2-4.55,5.43-9.64,7.44-14.07l-.38.2c1.58-3.37,1.75-2.4,3.77-5.91l0,.15a10.14,10.14,0,0,1,1.39-2.67c-.35,1,1.49-1.31,1,0,1.89-3.52.81-1.82,1.68-4.45l.66-.27a6,6,0,0,1,1.32-2.76c-.76,1.51,1.23-.67.44,1.05a15.8,15.8,0,0,0,1.9-2c.49-.65.87-1.25,1.23-1.78.7-1.07,1.28-1.89,2.37-2.19.27-1.06-.44-.49-1.16.24s-1.39,1.63-1.12,1.14c-.85.47.46-1.73,1.46-2.63a5.53,5.53,0,0,1,1.91-1,10.6,10.6,0,0,0,3-2c-.24.22-.21.3-.45.52,1.07-.68,1.58-1.91,3-2.58.28-1,1.57-1.21,1.28-2-.76.7-1.54,1.36-2.28,2.08,1.19-1.27,1.92-3.06,4.58-4.34a9.37,9.37,0,0,1-1.09,1.36c.81-.31,1.23-1.07,2.1-1.34.22.78-3,2.21-4,3.9.88-.32,2.43-2.58,2.2-1.33.44-1.67,2.71-1.79,4.2-3.59l.11.48a6.38,6.38,0,0,1,1.36-1.1c-.26.35-.48.74-.72,1.11a4.74,4.74,0,0,1,2.29-1.2,9.94,9.94,0,0,0,2.38-.87c-1.64.69-1.87.66-1.9.47s.16-.55-.6-.36a6.66,6.66,0,0,1,2.14-1,3,3,0,0,1,1.29-.06,5.18,5.18,0,0,0,1.4,0,15.05,15.05,0,0,0,2.54-.63c-.61.24-2.48.42-1.55-.08a9.94,9.94,0,0,1,2.79-.22c3.15-.79-.6-.37.69-.95a1.63,1.63,0,0,0,1.39-.22,6.91,6.91,0,0,1,1.56-.74l.08.48c1.87-.11,2.09-.31,2.28-.59a.75.75,0,0,1,.45-.35,3.76,3.76,0,0,1,1.6-.05c-.48.24-.94.44-1.4.72.58-.13,1.16-.15,1.74-.23l-.35.55a8.45,8.45,0,0,1,4.3,0c-.39-.4.32-.84,2-.63,1.07.47-.69.3,1.61.72a2.19,2.19,0,0,1-2.12-.15c-.13.14-.55.23-.68.37a24.35,24.35,0,0,0,3.71.76,4.08,4.08,0,0,1-.84-.3,12.13,12.13,0,0,1,1.69.09l1.7.17c.42.38,0,.32-.45.35a14.71,14.71,0,0,1,2.09.48c-.39.26-.5.66-1.82.32a26.23,26.23,0,0,1,3,.84c.11.25,1.18,1.14.76,1.08a15.28,15.28,0,0,0,2.64,1.4A8.46,8.46,0,0,1,237,22.49a2.2,2.2,0,0,1,.75.45c1.48,1.64,2.32,3.41,4.25,5.28.1.54.17,1.09.23,1.64,1.24,1.68-.34-2.22,1.73.61,1.46,2,0,1.1.21,2a9.67,9.67,0,0,1,3.06,4.86C246.83,36.64,246.65,36.06,246.28,35.44ZM262.55,42c-.11-.22-.43-.35-.17-.73C262.91,41.06,262.68,41.59,262.55,42Zm5.71,40.19a2.91,2.91,0,0,1-.16-1.67A6.07,6.07,0,0,1,268.26,82.2Zm-61.12-6.49.05,0C207.89,76.57,207.65,76.27,207.14,75.72Zm-1.67-1.51c-.22-.07-.25,0-.21.1a2.26,2.26,0,0,1,1.06.64C206.26,74.75,206.09,74.49,205.46,74.2Zm-20.8-49.72.44-.24C184.4,25.1,184.54,24.8,184.67,24.49Z"/><path class="cls-2" d="M266.9,77.68a.44.44,0,0,1,.23-.26C267,77.22,266.92,77.23,266.9,77.68Z"/><path class="cls-2" d="M237.09,22.54l-.05-.06a.2.2,0,0,0-.11,0Z"/><path class="cls-2" d="M229.26,86.93a3,3,0,0,1,.94.42C230.25,87.24,230,87.08,229.26,86.93Z"/><path class="cls-2" d="M194.38,70.61c.47,0,.93.1,1.4.14a4.66,4.66,0,0,1-1.21-.4C194.57,70.47,194.81,70.66,194.38,70.61Z"/><path class="cls-2" d="M181.44,68.49c-.2.12-.46.14-.66.26l.12.2C181.82,68.66,182.44,68.34,181.44,68.49Z"/><path class="cls-2" d="M193.26,68.85c-.07-.44-1-.36-2.08-.34h.19C191,69.1,192.15,68.92,193.26,68.85Z"/><path class="cls-2" d="M190.94,68.52c-.32,0-.65,0-1,0C189.85,68.77,190.36,68.55,190.94,68.52Z"/><path class="cls-2" d="M202.9,72.94c-.37-.32-.5.32-.66,0-.35.11.4.34,1,.42S204.11,73.45,202.9,72.94Z"/><path class="cls-2" d="M192.52,67.44l.35.52.64-.33A8.87,8.87,0,0,0,192.52,67.44Z"/><path class="cls-2" d="M200.74,69.7c-.51-.27-1-.48-1.57-.72,0,.09-.22.06-.49,0A10.29,10.29,0,0,0,200.74,69.7Z"/><path class="cls-2" d="M198.68,69a5.91,5.91,0,0,0-1.35-.3A13.36,13.36,0,0,0,198.68,69Z"/><path class="cls-2" d="M194.91,67.57a4.59,4.59,0,0,1,.49.19l1.2.29C196,67.89,195.48,67.69,194.91,67.57Z"/><path class="cls-2" d="M214.56,81.37c.34.46.68.93,1,1.45.28.17.18-.29-.24-.88C215,81.59,214.57,81.07,214.56,81.37Z"/><path class="cls-2" d="M212.16,76a1.7,1.7,0,0,1,.3.89l.5-.37C212.7,76.33,212.43,76.16,212.16,76Z"/><path class="cls-2" d="M215.79,80.49a11.33,11.33,0,0,1,1,1.18c.34.41.45.44-.4-1C216.1,80.39,214.86,78.78,215.79,80.49Z"/><polygon class="cls-2" points="231.91 89.15 231.43 89.07 231.3 90.08 231.91 89.15"/><path class="cls-2" d="M256.67,95.82c-1.93-1.28-.77.31-2.47-.92-.58,0,1.39,1,.81.93C256.34,96.25,256.92,96.71,256.67,95.82Z"/><path class="cls-2" d="M255,95.84c-.21-.07-.44-.13-.69-.19A3.93,3.93,0,0,0,255,95.84Z"/><path class="cls-2" d="M143.66,103c-.13.49-.22,1-.34,1.47l.42-.93C143.71,103.38,143.68,103.2,143.66,103Z"/><path class="cls-2" d="M144.18,105.93l-.67.31.52.92A2.9,2.9,0,0,1,144.18,105.93Z"/><path class="cls-2" d="M261.48,45.46l.16.1c.15-.24.14-.58.12-1.26Z"/><path class="cls-2" d="M254.63,44.77l.54-.25a9.42,9.42,0,0,1-1-.16A4.78,4.78,0,0,0,254.63,44.77Z"/><path class="cls-2" d="M242.89,31.78c.31.55.78,1.15,1.06,1.72C243.2,32.33,243.43,31.27,242.89,31.78Z"/><path class="cls-2" d="M69.72,220.6v1.12a8.24,8.24,0,0,1,2.45-2.12,5.58,5.58,0,0,1,2.87-.46,5.73,5.73,0,0,1,5.12,3.61,7.79,7.79,0,0,1,2.51-2.37,6.16,6.16,0,0,1,3.24-.56,6.47,6.47,0,0,1,3.64,1.32A6.84,6.84,0,0,1,92,224.9a19.26,19.26,0,0,1,.38,5l-.08,4.61-.06,3.56q0,1.95,0,2.38.15,1.75.89,1.9a2.37,2.37,0,0,0,.75,0,2.48,2.48,0,0,1,.75,0,1.47,1.47,0,0,1,1.22,1.7q0,1.7-1.46,1.4a13,13,0,0,1-1.63-.52,14.2,14.2,0,0,0-1.66-.53,15.27,15.27,0,0,0-1.77-.24,13.28,13.28,0,0,1-1.77-.25,1.77,1.77,0,0,1-1.47-1.95q0-1.36,1.16-1.11.14,0,.71.25a1.68,1.68,0,0,0,.57.21q.61.13.78-.63a28.49,28.49,0,0,0,.26-3.92l0-2.84.05-3.07a21.25,21.25,0,0,0-.3-4.72A4.53,4.53,0,0,0,88,223.66a3.9,3.9,0,0,0-2.34-1,3.34,3.34,0,0,0-3.56,1.86,15,15,0,0,0-.87,5.84l0,3.09a47.72,47.72,0,0,0,.09,5.15q.15,1.06.82,1.22a3,3,0,0,0,.62.06,3.22,3.22,0,0,1,.62.05,1.35,1.35,0,0,1,.83.61,1.91,1.91,0,0,1,.32,1.11c0,1-.58,1.32-1.69,1a12.07,12.07,0,0,1-1.58-.58,12.74,12.74,0,0,0-1.57-.58,9.28,9.28,0,0,0-1.63-.26,8.32,8.32,0,0,1-1.56-.26,1.72,1.72,0,0,1-1.43-1.8q0-1.27,1.07-1a1.57,1.57,0,0,1,.6.27,3.07,3.07,0,0,0,.74.36q.85.22.91-2l.13-2,0-1.83c0-.51,0-.78,0-.81l0-3.55a11.66,11.66,0,0,0-.77-5.25,3.45,3.45,0,0,0-3-1.71,3.75,3.75,0,0,0-3.62,1.56c-.7,1-1.05,2.67-1.07,5.21l0,5.21q0,1.57,0,1.85c.09.91.34,1.43.76,1.54a2.37,2.37,0,0,0,.74,0,.58.58,0,0,0,.21,0l.25.07a1.61,1.61,0,0,1,1.36,1.7c0,.86-.54,1.14-1.6.83a13.22,13.22,0,0,1-1.47-.56,20.26,20.26,0,0,0-2-.77c-.28-.09-.79-.2-1.54-.36-1-.21-1.61-.36-1.82-.43a1.71,1.71,0,0,1-1.4-1.68q0-1.11,1.35-.72l.21.06.21.1.89.44a.26.26,0,0,0,.14.08q1,.28,1-1.55v-2.15l0-5.78a28.92,28.92,0,0,0-.14-4,1,1,0,0,0-.87-.89,8.5,8.5,0,0,0-1,.08,2.79,2.79,0,0,1-.57,0q-1.32-.15-1.32-1.3T65,219.1a10.72,10.72,0,0,1,1.07.16,11.27,11.27,0,0,0,1.18.17l.39,0,.25,0,.86-.08h.11Q69.73,219.48,69.72,220.6Z"/><path class="cls-2" d="M105.47,248.23c-2.52-.45-4.52-2.08-6-4.75a19.68,19.68,0,0,1-2.1-9.95c.07-4,.88-7.08,2.45-9.38a6.85,6.85,0,0,1,6.2-3.33,7.12,7.12,0,0,1,6.14,4c1.48,2.58,2.18,6.07,2.12,10.42s-.9,7.75-2.51,10.14A5.87,5.87,0,0,1,105.47,248.23Zm.58-24a4.23,4.23,0,0,0-4,2.23,14.2,14.2,0,0,0-1.7,6.81v.65a17.16,17.16,0,0,0,1.3,7.59,5.33,5.33,0,0,0,3.93,3.36,3.86,3.86,0,0,0,4.17-2.16c1-1.73,1.57-4.29,1.62-7.63C111.47,228,109.7,224.4,106,224.21Z"/><path class="cls-2" d="M122.59,228.78q2,8.73,4,17.67,2.16-8.49,4.29-17.19a12.16,12.16,0,0,0,.38-2q0-1.24-.75-1.26a3.26,3.26,0,0,0-.85.14,3.18,3.18,0,0,1-.85.14q-1.19,0-1.17-1.86t1.76-1.88h.29a1.36,1.36,0,0,0,.29,0l1.51.28a2.55,2.55,0,0,0,1,.25,14,14,0,0,0,2.39-.27,8.92,8.92,0,0,1,1.45-.16q1.55,0,1.54,1.94t-1.28,1.88a1,1,0,0,1-.58-.15,2.66,2.66,0,0,0-.76-.22c-.43,0-.89.89-1.36,2.69q-2.65,10.13-5.33,20-.68,2.52-2.25,2.35c-1-.11-1.7-1-2.11-2.79q-2.49-10.56-4.94-20.81c-.32-1.36-.71-2.05-1.16-2.07a2.76,2.76,0,0,0-.76.12,2.68,2.68,0,0,1-.76.12q-1.19-.06-1.17-1.72,0-1.93,1.69-1.87a1.35,1.35,0,0,1,.43.07l1.51.34a8,8,0,0,0,1.51.2,10.94,10.94,0,0,0,1.81-.15l1.19-.18a1.44,1.44,0,0,1,.51-.05q1.59,0,1.56,2t-1.39,1.75a2,2,0,0,1-.61-.09,3.64,3.64,0,0,0-.86-.3q-.58,0-.59.75a6.11,6.11,0,0,0,.13,1.11Z"/><path class="cls-2" d="M154.87,234.89a11.18,11.18,0,0,1-.19,2.7c-.12.33-.47.49-1.06.48q-5.78-.07-11.56-.28-.47,0-.62.18a1.12,1.12,0,0,0-.15.65,14.67,14.67,0,0,0,1.59,7.26c1.08,2,2.44,3,4.07,3.05a3.85,3.85,0,0,0,2.94-1.3,6.62,6.62,0,0,0,1.74-3.5l.33-1.68q.26-1.39,1.21-1.38,1.35,0,1.34,2.23a10.11,10.11,0,0,1-2.42,6.67,6.68,6.68,0,0,1-5.49,2.76c-2.56-.11-4.58-1.58-6.07-4.36s-2.21-6.43-2.17-11,.87-8.39,2.48-11.26,3.69-4.31,6.24-4.29q3.4,0,5.59,3.7A17.86,17.86,0,0,1,154.87,234.89Zm-13.17-1.76a.73.73,0,0,0,.79.83q4.34.13,8.67.19.76,0,.76-.8A9.76,9.76,0,0,0,150.5,228a4.14,4.14,0,0,0-3.39-2.3c-1.35,0-2.58.74-3.7,2.28A8.64,8.64,0,0,0,141.7,233.13Z"/><path class="cls-2" d="M172.14,224.52v1.85c1.34-3,3.17-4.54,5.5-4.58s4.33,1.25,5.78,3.83,2.19,6.07,2.24,10.51c0,4.79-.67,8.65-2.16,11.62s-3.52,4.56-6.07,4.72q-3.18.19-5.17-3.27l0,4.8q0,2.19.09,2.83.23,1.78,1.07,1.74a2.75,2.75,0,0,0,.77-.22,2.78,2.78,0,0,1,.77-.22c.78,0,1.18.56,1.18,1.83s-.5,1.94-1.52,2a8.41,8.41,0,0,1-1.65-.14,12.91,12.91,0,0,0-2.41-.05,8,8,0,0,0-1.46.18,12.4,12.4,0,0,1-1.94.36,1.24,1.24,0,0,1-1.06-.57,2.27,2.27,0,0,1-.44-1.39c0-1.22.41-1.84,1.23-1.86a2.56,2.56,0,0,1,.69.13,3.26,3.26,0,0,0,.91.17c.46,0,.74-.4.85-1.16s.16-2.86.17-6.3q0-11.19-.09-22.37,0-2.66-.94-2.66a2.43,2.43,0,0,0-.77.21,2.43,2.43,0,0,1-.81.21q-1.33,0-1.33-1.91t1.59-1.87a7.45,7.45,0,0,1,.87.05,11.41,11.41,0,0,0,1.34.1,7.16,7.16,0,0,0,.94-.1,7.15,7.15,0,0,1,.9-.1Q172.14,222.9,172.14,224.52Zm.58,7a42.57,42.57,0,0,0-.34,5.5q0,.23,0,.87v.81a27.91,27.91,0,0,0,.43,5.62,6.92,6.92,0,0,0,1.6,3.08,3.52,3.52,0,0,0,2.94,1.24c1.75-.09,3.1-1.18,4-3.24a20.66,20.66,0,0,0,1.36-8.6q-.1-11.37-5.24-11.26a4,4,0,0,0-3.08,1.73A8.55,8.55,0,0,0,172.72,231.56Z"/><path class="cls-2" d="M194,227l.21,17.18q.07,2.82,1,2.71a3.61,3.61,0,0,0,.91-.37,3.27,3.27,0,0,1,.58-.17Q198,246.18,198,248c0,1.2-.47,1.87-1.46,2a11.43,11.43,0,0,1-1.85,0,12.68,12.68,0,0,0-2,0,10.93,10.93,0,0,0-1.74.4,10.32,10.32,0,0,1-1.7.39l-.18,0c-1,.1-1.53-.53-1.55-1.89q0-1.75,1.23-1.85l.26,0a1.07,1.07,0,0,0,.33,0,5.89,5.89,0,0,0,1.07.22q.66-.06.82-.95a36.78,36.78,0,0,0,.15-4.52v-3.92l-.1-8.67-.12-10q-.06-1.68-.13-2.24c-.18-.86-.52-1.28-1-1.28a8,8,0,0,0-.93.23,2.51,2.51,0,0,1-.65.12q-1.23,0-1.24-1.79t1.42-1.86a3.72,3.72,0,0,1,.69.06l.87.17a3.87,3.87,0,0,0,2.05-.06,5.22,5.22,0,0,1,1.08-.17q.83,0,.85,1.6a7,7,0,0,1,0,.83Q193.91,219.18,194,227Z"/><path class="cls-2" d="M215.37,247.62q-3,.55-3.7-3c-1.18,2.77-3.09,4.42-5.72,4.83a5,5,0,0,1-4.72-1.48,8.14,8.14,0,0,1-1.84-5.6c0-3,.78-5.31,2.47-6.85a6.39,6.39,0,0,1,1.66-1.19,25,25,0,0,1,2.83-.86,9,9,0,0,0,3.93-1.67,4.28,4.28,0,0,0,.87-3.14,4.84,4.84,0,0,0-1.08-3.28,3.44,3.44,0,0,0-2.89-1.07,4.5,4.5,0,0,0-3,1.48,1.64,1.64,0,0,0-.52,1.15.82.82,0,0,0,.33.51,2.52,2.52,0,0,1,.53,1.78,3,3,0,0,1-.5,1.8,1.68,1.68,0,0,1-2.89-.06,4.11,4.11,0,0,1-.67-2.34,7.57,7.57,0,0,1,1.93-5.28,6.5,6.5,0,0,1,4.82-2.32c4.37-.14,6.6,2.73,6.7,8.66l.17,10.29q0,2.45.12,2.89.25,1.75,1.25,1.58,1.26-.22,1.21-3.42l0-2.45q0-1.6,1.07-1.75t1.21,2.23v.25l0,2.83C219,245.32,217.77,247.17,215.37,247.62ZM211.2,238l-.06-3.68a5.39,5.39,0,0,1-1.65,1.63,12.9,12.9,0,0,1-3.13,1.07c-2.73.67-4.07,2.31-4,4.93a4.41,4.41,0,0,0,1,3.1,3,3,0,0,0,2.71.81,5.2,5.2,0,0,0,3.78-2.46A9.7,9.7,0,0,0,211.2,238Z"/><path class="cls-2" d="M225.28,222.5l0,1.36c1.4-2.53,3.29-3.81,5.69-3.94a6.11,6.11,0,0,1,3.68,1,5.6,5.6,0,0,1,2.37,2.83,11.93,11.93,0,0,1,.55,3.82l.11,8.26q0,1.87.07,2.21.2,1.44,1,1.25a5,5,0,0,0,.83-.31,5.06,5.06,0,0,1,.72-.28.85.85,0,0,1,.8.18,1.07,1.07,0,0,1,.35.84,1.81,1.81,0,0,1-.41,1.17,1.92,1.92,0,0,1-1,.7,12,12,0,0,1-1.63.26,15.68,15.68,0,0,0-2.13.38,12.59,12.59,0,0,0-1.53.47c-1.18.47-1.81.72-1.88.73q-1.42.35-1.45-1.26a1.49,1.49,0,0,1,1.21-1.69,2.73,2.73,0,0,1,.65-.05,4.47,4.47,0,0,0,.87,0c.58-.13.88-1,.91-2.66l0-2.27,0-2.71-.05-3.38a19.16,19.16,0,0,0-.23-3.23,4.11,4.11,0,0,0-1.43-2.5,3.78,3.78,0,0,0-2.7-.82,4.55,4.55,0,0,0-4.07,3,17,17,0,0,0-.75,6.41l.11,6.33a11.79,11.79,0,0,0,.26,2.82q.23.72.8.6a3.12,3.12,0,0,0,.78-.33,3.27,3.27,0,0,1,.82-.33q1.11-.23,1.13,1.32a1.66,1.66,0,0,1-1.4,1.84,15.86,15.86,0,0,1-1.86.13,10.55,10.55,0,0,0-1.76.24,16,16,0,0,0-2,.61c-1,.38-1.65.58-1.79.61q-1.51.31-1.54-1.39t1.14-1.8a2.78,2.78,0,0,1,.68,0,3.21,3.21,0,0,0,1,0q1.1-.21,1.08-3l-.09-5.38-.1-5.87,0-1.7a7.91,7.91,0,0,0-.35-2.23.79.79,0,0,0-.83-.55,3.55,3.55,0,0,0-.75.18,3.46,3.46,0,0,1-.75.18q-1.32.1-1.34-1.49a1.5,1.5,0,0,1,1.59-1.72,1.14,1.14,0,0,1,.36,0l1.33.12a3.79,3.79,0,0,0,1-.18l1-.17Q225.25,221,225.28,222.5Z"/><path class="cls-2" d="M252.6,232.6q0-1.19,0-2.38,0-1.53,1.27-1.78t1.23,1.4a13,13,0,0,1-1,5.76,7.08,7.08,0,0,1-4.34,3.5c-1.86.58-3.19.31-4-.85-.59-.83-.9-2.46-.93-4.87l-.1-9.74q0-.85-.7-.78l-1.17.12a1.13,1.13,0,0,1-1-.34,1.45,1.45,0,0,1-.4-1,1.71,1.71,0,0,1,.36-1.08,1.16,1.16,0,0,1,.84-.52l1.4-.1c.41,0,.61-.3.6-.82l0-4.18q0-1.54,1.39-1.55t1.31,1.49l0,4.22c0,.39.22.58.65.54l3.9-.31q1.36-.11,1.36,1.18a1.42,1.42,0,0,1-1.46,1.53l-3.92.44q-.5.05-.49.88l.08,9.7c0,2.77.86,3.93,2.49,3.46S252.54,234.72,252.6,232.6Z"/></g></g></svg>